M48
;Layer_Color=9474304
;FILE_FORMAT=4:4
METRIC,TZ
;TYPE=PLATED
T01F00S00C0.3000
T04F00S00C0.8000
%
T01
X404000Y379000
X469000Y389000
X434000Y416500
X421500Y429000
X411830Y431830
X404000Y421500
X399330Y444330
X446500Y519000
X524000Y461500
X523955Y433955
X524000Y424000
X536500Y434000
X561500Y454000
X589000
X594000Y519000
X559000Y584000
Y604000
X654000Y614000
X719000Y599000
X674000Y551500
X381830Y414330
T04
X616500Y471300
Y484000
Y496700
M30
