G04*
G04 #@! TF.GenerationSoftware,Altium Limited,Altium Designer,26.2.0 (7)*
G04*
G04 Layer_Color=16711935*
%FSLAX43Y43*%
%MOMM*%
G71*
G04*
G04 #@! TF.SameCoordinates,7064716E-1A3A-49CC-833F-900B9F478C30*
G04*
G04*
G04 #@! TF.FilePolarity,Negative*
G04*
G01*
G75*
%ADD32O,1.700X1.200*%
%ADD33O,1.400X1.000*%
%ADD34O,2.203X1.203*%
%ADD35O,2.203X1.203*%
%ADD36C,0.803*%
D32*
X44390Y37225D02*
D03*
Y31775D02*
D03*
D33*
X41360Y36925D02*
D03*
Y32075D02*
D03*
D34*
X36250Y23000D02*
D03*
Y21730D02*
D03*
D35*
Y24270D02*
D03*
D36*
X33500Y20000D02*
D03*
X21500Y13500D02*
D03*
X46500Y34500D02*
D03*
X40000Y36000D02*
D03*
X42000Y29750D02*
D03*
X12783Y16033D02*
D03*
X15000Y12500D02*
D03*
X34000Y26500D02*
D03*
X30500Y33000D02*
D03*
Y35000D02*
D03*
X15000Y16750D02*
D03*
X15783Y17783D02*
D03*
X14533Y19033D02*
D03*
X27000Y17000D02*
D03*
X28250Y18000D02*
D03*
X26995Y17995D02*
D03*
X27000Y20750D02*
D03*
X30750Y20000D02*
D03*
X18000Y16250D02*
D03*
X19250Y26500D02*
D03*
X16750Y17500D02*
D03*
M02*
