G04*
G04 #@! TF.GenerationSoftware,Altium Limited,Altium Designer,26.2.0 (7)*
G04*
G04 Layer_Color=65535*
%FSLAX43Y43*%
%MOMM*%
G71*
G04*
G04 #@! TF.SameCoordinates,7064716E-1A3A-49CC-833F-900B9F478C30*
G04*
G04*
G04 #@! TF.FilePolarity,Positive*
G04*
G01*
G75*
%ADD10C,0.250*%
%ADD11C,0.200*%
%ADD12C,0.500*%
%ADD13C,0.150*%
G36*
X23795Y25095D02*
X23678D01*
Y25845D01*
X23676Y25844D01*
X23669Y25839D01*
X23661Y25830D01*
X23647Y25821D01*
X23632Y25808D01*
X23612Y25794D01*
X23590Y25779D01*
X23565Y25764D01*
X23564D01*
X23562Y25762D01*
X23554Y25757D01*
X23540Y25750D01*
X23524Y25741D01*
X23504Y25732D01*
X23483Y25722D01*
X23463Y25712D01*
X23442Y25704D01*
Y25818D01*
X23443D01*
X23446Y25821D01*
X23451Y25822D01*
X23458Y25826D01*
X23467Y25830D01*
X23476Y25836D01*
X23500Y25850D01*
X23528Y25865D01*
X23556Y25884D01*
X23585Y25906D01*
X23614Y25930D01*
X23615Y25931D01*
X23617Y25933D01*
X23621Y25937D01*
X23626Y25941D01*
X23639Y25955D01*
X23655Y25972D01*
X23672Y25991D01*
X23690Y26013D01*
X23705Y26035D01*
X23719Y26059D01*
X23795D01*
Y25095D01*
D02*
G37*
G36*
X22887Y26054D02*
X22898D01*
X22923Y26051D01*
X22951Y26048D01*
X22980Y26042D01*
X23009Y26035D01*
X23035Y26026D01*
X23037D01*
X23038Y26024D01*
X23047Y26020D01*
X23059Y26013D01*
X23073Y26004D01*
X23090Y25991D01*
X23108Y25976D01*
X23124Y25956D01*
X23139Y25936D01*
X23141Y25933D01*
X23145Y25925D01*
X23152Y25913D01*
X23159Y25897D01*
X23166Y25877D01*
X23173Y25857D01*
X23177Y25833D01*
X23178Y25809D01*
Y25807D01*
Y25800D01*
X23177Y25787D01*
X23174Y25772D01*
X23170Y25754D01*
X23163Y25735D01*
X23155Y25715D01*
X23144Y25694D01*
X23142Y25692D01*
X23138Y25686D01*
X23130Y25675D01*
X23119Y25664D01*
X23105Y25650D01*
X23088Y25635D01*
X23067Y25621D01*
X23044Y25607D01*
X23045D01*
X23048Y25606D01*
X23052Y25604D01*
X23058Y25601D01*
X23074Y25596D01*
X23094Y25586D01*
X23115Y25574D01*
X23138Y25558D01*
X23159Y25540D01*
X23178Y25518D01*
X23180Y25515D01*
X23185Y25507D01*
X23194Y25495D01*
X23202Y25478D01*
X23210Y25456D01*
X23219Y25432D01*
X23224Y25404D01*
X23225Y25374D01*
Y25373D01*
Y25371D01*
Y25363D01*
X23224Y25349D01*
X23221Y25332D01*
X23219Y25313D01*
X23213Y25292D01*
X23206Y25270D01*
X23196Y25248D01*
X23195Y25245D01*
X23191Y25238D01*
X23185Y25228D01*
X23177Y25214D01*
X23166Y25201D01*
X23155Y25185D01*
X23141Y25170D01*
X23126Y25158D01*
X23124Y25156D01*
X23119Y25152D01*
X23109Y25147D01*
X23096Y25141D01*
X23081Y25133D01*
X23063Y25124D01*
X23044Y25117D01*
X23020Y25110D01*
X23017D01*
X23009Y25108D01*
X22995Y25106D01*
X22977Y25104D01*
X22955Y25101D01*
X22929Y25098D01*
X22900Y25097D01*
X22866Y25095D01*
X22500D01*
Y26055D01*
X22877D01*
X22887Y26054D01*
D02*
G37*
G36*
X22341Y25941D02*
X21819D01*
Y25644D01*
X22270D01*
Y25531D01*
X21819D01*
Y25095D01*
X21692D01*
Y26055D01*
X22341D01*
Y25941D01*
D02*
G37*
G36*
X36974Y19739D02*
X36992Y19736D01*
X37015Y19732D01*
X37039Y19725D01*
X37064Y19717D01*
X37089Y19706D01*
X37091D01*
X37092Y19704D01*
X37100Y19700D01*
X37113Y19692D01*
X37127Y19682D01*
X37143Y19668D01*
X37160Y19653D01*
X37177Y19635D01*
X37191Y19614D01*
X37192Y19611D01*
X37196Y19604D01*
X37202Y19592D01*
X37209Y19577D01*
X37216Y19559D01*
X37221Y19538D01*
X37225Y19514D01*
X37227Y19491D01*
Y19488D01*
Y19480D01*
X37225Y19468D01*
X37223Y19453D01*
X37218Y19435D01*
X37211Y19416D01*
X37203Y19396D01*
X37192Y19377D01*
X37191Y19374D01*
X37186Y19369D01*
X37178Y19359D01*
X37167Y19348D01*
X37153Y19335D01*
X37137Y19321D01*
X37117Y19309D01*
X37094Y19296D01*
X37095D01*
X37098Y19295D01*
X37102Y19294D01*
X37107Y19292D01*
X37123Y19287D01*
X37142Y19278D01*
X37164Y19267D01*
X37186Y19253D01*
X37207Y19235D01*
X37227Y19215D01*
X37228Y19212D01*
X37234Y19204D01*
X37242Y19190D01*
X37250Y19172D01*
X37259Y19149D01*
X37267Y19123D01*
X37272Y19093D01*
X37274Y19059D01*
Y19058D01*
Y19054D01*
Y19047D01*
X37272Y19039D01*
X37271Y19027D01*
X37268Y19015D01*
X37266Y19001D01*
X37263Y18986D01*
X37252Y18953D01*
X37243Y18934D01*
X37235Y18918D01*
X37224Y18900D01*
X37211Y18882D01*
X37198Y18864D01*
X37181Y18847D01*
X37180Y18846D01*
X37177Y18843D01*
X37171Y18839D01*
X37164Y18833D01*
X37156Y18826D01*
X37145Y18819D01*
X37132Y18811D01*
X37117Y18804D01*
X37102Y18796D01*
X37084Y18787D01*
X37066Y18781D01*
X37045Y18774D01*
X37023Y18768D01*
X36999Y18764D01*
X36976Y18761D01*
X36949Y18760D01*
X36937D01*
X36929Y18761D01*
X36917Y18763D01*
X36905Y18764D01*
X36891Y18767D01*
X36876Y18769D01*
X36843Y18778D01*
X36808Y18792D01*
X36790Y18800D01*
X36773Y18810D01*
X36757Y18822D01*
X36740Y18835D01*
X36739Y18836D01*
X36736Y18839D01*
X36732Y18843D01*
X36727Y18849D01*
X36721Y18855D01*
X36714Y18865D01*
X36705Y18875D01*
X36697Y18887D01*
X36689Y18901D01*
X36680Y18915D01*
X36665Y18948D01*
X36653Y18987D01*
X36648Y19008D01*
X36646Y19030D01*
X36764Y19045D01*
Y19044D01*
X36765Y19041D01*
X36766Y19036D01*
X36768Y19029D01*
X36769Y19020D01*
X36772Y19011D01*
X36779Y18990D01*
X36788Y18965D01*
X36801Y18941D01*
X36815Y18919D01*
X36831Y18900D01*
X36834Y18898D01*
X36840Y18893D01*
X36851Y18886D01*
X36865Y18879D01*
X36881Y18871D01*
X36902Y18864D01*
X36926Y18858D01*
X36951Y18857D01*
X36959D01*
X36965Y18858D01*
X36980Y18860D01*
X36999Y18864D01*
X37021Y18871D01*
X37045Y18880D01*
X37069Y18894D01*
X37091Y18914D01*
X37094Y18916D01*
X37100Y18925D01*
X37109Y18937D01*
X37120Y18954D01*
X37131Y18975D01*
X37139Y18998D01*
X37146Y19026D01*
X37149Y19057D01*
Y19058D01*
Y19061D01*
Y19065D01*
X37148Y19070D01*
X37146Y19086D01*
X37142Y19104D01*
X37137Y19126D01*
X37127Y19148D01*
X37113Y19170D01*
X37095Y19191D01*
X37092Y19194D01*
X37085Y19199D01*
X37074Y19208D01*
X37059Y19217D01*
X37039Y19227D01*
X37016Y19235D01*
X36990Y19241D01*
X36960Y19244D01*
X36948D01*
X36938Y19242D01*
X36926Y19241D01*
X36912Y19238D01*
X36895Y19235D01*
X36877Y19231D01*
X36891Y19335D01*
X36898D01*
X36904Y19334D01*
X36922D01*
X36937Y19337D01*
X36955Y19339D01*
X36976Y19344D01*
X36999Y19351D01*
X37021Y19360D01*
X37045Y19373D01*
X37046D01*
X37048Y19374D01*
X37055Y19380D01*
X37064Y19389D01*
X37076Y19402D01*
X37087Y19420D01*
X37096Y19441D01*
X37103Y19464D01*
X37106Y19478D01*
Y19493D01*
Y19495D01*
Y19496D01*
Y19504D01*
X37103Y19516D01*
X37100Y19531D01*
X37095Y19547D01*
X37088Y19566D01*
X37077Y19584D01*
X37062Y19600D01*
X37060Y19602D01*
X37053Y19607D01*
X37044Y19614D01*
X37031Y19622D01*
X37015Y19629D01*
X36995Y19636D01*
X36973Y19642D01*
X36948Y19643D01*
X36937D01*
X36924Y19640D01*
X36908Y19638D01*
X36890Y19632D01*
X36872Y19625D01*
X36852Y19614D01*
X36834Y19600D01*
X36833Y19599D01*
X36827Y19592D01*
X36819Y19582D01*
X36809Y19568D01*
X36800Y19550D01*
X36790Y19528D01*
X36782Y19502D01*
X36776Y19471D01*
X36658Y19492D01*
Y19493D01*
X36659Y19498D01*
X36661Y19503D01*
X36662Y19511D01*
X36665Y19521D01*
X36669Y19532D01*
X36678Y19559D01*
X36691Y19589D01*
X36708Y19620D01*
X36729Y19649D01*
X36755Y19675D01*
X36757Y19676D01*
X36759Y19678D01*
X36764Y19681D01*
X36769Y19685D01*
X36776Y19690D01*
X36786Y19696D01*
X36795Y19701D01*
X36808Y19708D01*
X36836Y19719D01*
X36868Y19731D01*
X36905Y19737D01*
X36924Y19740D01*
X36959D01*
X36974Y19739D01*
D02*
G37*
G36*
X36481Y19181D02*
Y19180D01*
Y19174D01*
Y19167D01*
Y19158D01*
X36479Y19145D01*
Y19131D01*
X36478Y19115D01*
X36476Y19098D01*
X36472Y19061D01*
X36467Y19022D01*
X36458Y18984D01*
X36453Y18966D01*
X36447Y18950D01*
Y18948D01*
X36446Y18946D01*
X36443Y18941D01*
X36440Y18936D01*
X36432Y18921D01*
X36420Y18901D01*
X36403Y18879D01*
X36384Y18857D01*
X36359Y18833D01*
X36328Y18812D01*
X36327D01*
X36324Y18810D01*
X36320Y18808D01*
X36313Y18804D01*
X36304Y18800D01*
X36293Y18796D01*
X36282Y18792D01*
X36268Y18786D01*
X36253Y18781D01*
X36236Y18776D01*
X36218Y18772D01*
X36198Y18768D01*
X36177Y18765D01*
X36155Y18763D01*
X36105Y18760D01*
X36092D01*
X36083Y18761D01*
X36071D01*
X36058Y18763D01*
X36042Y18764D01*
X36027Y18765D01*
X35992Y18771D01*
X35955Y18779D01*
X35919Y18790D01*
X35884Y18806D01*
X35883D01*
X35880Y18808D01*
X35876Y18811D01*
X35870Y18814D01*
X35855Y18825D01*
X35837Y18840D01*
X35816Y18860D01*
X35797Y18882D01*
X35777Y18910D01*
X35762Y18940D01*
Y18941D01*
X35761Y18944D01*
X35759Y18950D01*
X35757Y18957D01*
X35754Y18965D01*
X35751Y18976D01*
X35747Y18989D01*
X35744Y19004D01*
X35741Y19020D01*
X35737Y19039D01*
X35734Y19058D01*
X35732Y19079D01*
X35729Y19102D01*
X35728Y19127D01*
X35726Y19154D01*
Y19181D01*
Y19736D01*
X35854D01*
Y19181D01*
Y19180D01*
Y19176D01*
Y19169D01*
Y19161D01*
X35855Y19151D01*
Y19138D01*
X35857Y19112D01*
X35859Y19081D01*
X35863Y19051D01*
X35869Y19022D01*
X35872Y19009D01*
X35876Y18997D01*
X35877Y18994D01*
X35880Y18987D01*
X35887Y18977D01*
X35895Y18964D01*
X35905Y18950D01*
X35919Y18934D01*
X35936Y18919D01*
X35955Y18907D01*
X35958Y18905D01*
X35965Y18901D01*
X35977Y18897D01*
X35994Y18892D01*
X36013Y18885D01*
X36038Y18880D01*
X36065Y18876D01*
X36094Y18875D01*
X36108D01*
X36116Y18876D01*
X36128D01*
X36141Y18878D01*
X36171Y18883D01*
X36205Y18890D01*
X36236Y18901D01*
X36267Y18916D01*
X36281Y18926D01*
X36293Y18937D01*
X36295Y18939D01*
X36296Y18940D01*
X36299Y18944D01*
X36303Y18950D01*
X36307Y18958D01*
X36313Y18966D01*
X36318Y18979D01*
X36324Y18991D01*
X36329Y19007D01*
X36334Y19025D01*
X36339Y19045D01*
X36343Y19068D01*
X36347Y19093D01*
X36350Y19119D01*
X36353Y19149D01*
Y19181D01*
Y19736D01*
X36481D01*
Y19181D01*
D02*
G37*
G36*
X24985Y21931D02*
Y21930D01*
Y21924D01*
Y21917D01*
Y21908D01*
X24984Y21895D01*
Y21881D01*
X24983Y21865D01*
X24981Y21848D01*
X24977Y21811D01*
X24972Y21772D01*
X24963Y21734D01*
X24958Y21716D01*
X24952Y21700D01*
Y21698D01*
X24951Y21696D01*
X24948Y21691D01*
X24945Y21686D01*
X24937Y21671D01*
X24924Y21651D01*
X24908Y21629D01*
X24888Y21607D01*
X24863Y21583D01*
X24833Y21562D01*
X24831D01*
X24829Y21560D01*
X24825Y21558D01*
X24818Y21554D01*
X24809Y21550D01*
X24798Y21546D01*
X24787Y21542D01*
X24773Y21536D01*
X24758Y21531D01*
X24741Y21526D01*
X24723Y21522D01*
X24703Y21518D01*
X24682Y21515D01*
X24660Y21513D01*
X24610Y21510D01*
X24597D01*
X24587Y21511D01*
X24576D01*
X24562Y21513D01*
X24547Y21514D01*
X24532Y21515D01*
X24497Y21521D01*
X24460Y21529D01*
X24424Y21540D01*
X24389Y21556D01*
X24388D01*
X24385Y21558D01*
X24381Y21561D01*
X24375Y21564D01*
X24360Y21575D01*
X24342Y21590D01*
X24321Y21610D01*
X24302Y21632D01*
X24282Y21660D01*
X24267Y21690D01*
Y21691D01*
X24266Y21694D01*
X24264Y21700D01*
X24262Y21707D01*
X24259Y21715D01*
X24256Y21726D01*
X24252Y21739D01*
X24249Y21754D01*
X24246Y21770D01*
X24242Y21789D01*
X24239Y21808D01*
X24237Y21829D01*
X24234Y21852D01*
X24232Y21877D01*
X24231Y21904D01*
Y21931D01*
Y22486D01*
X24359D01*
Y21931D01*
Y21930D01*
Y21926D01*
Y21919D01*
Y21911D01*
X24360Y21901D01*
Y21888D01*
X24361Y21862D01*
X24364Y21831D01*
X24368Y21801D01*
X24374Y21772D01*
X24377Y21759D01*
X24381Y21747D01*
X24382Y21744D01*
X24385Y21737D01*
X24392Y21727D01*
X24400Y21714D01*
X24410Y21700D01*
X24424Y21684D01*
X24440Y21669D01*
X24460Y21657D01*
X24463Y21655D01*
X24470Y21651D01*
X24482Y21647D01*
X24499Y21642D01*
X24518Y21635D01*
X24543Y21630D01*
X24569Y21626D01*
X24599Y21625D01*
X24612D01*
X24621Y21626D01*
X24633D01*
X24646Y21628D01*
X24676Y21633D01*
X24709Y21640D01*
X24741Y21651D01*
X24772Y21666D01*
X24786Y21676D01*
X24798Y21687D01*
X24800Y21689D01*
X24801Y21690D01*
X24804Y21694D01*
X24808Y21700D01*
X24812Y21708D01*
X24818Y21716D01*
X24823Y21729D01*
X24829Y21741D01*
X24834Y21757D01*
X24838Y21775D01*
X24844Y21795D01*
X24848Y21818D01*
X24852Y21843D01*
X24855Y21869D01*
X24858Y21899D01*
Y21931D01*
Y22486D01*
X24985D01*
Y21931D01*
D02*
G37*
G36*
X25490Y22489D02*
X25501Y22487D01*
X25515Y22486D01*
X25530Y22483D01*
X25546Y22481D01*
X25582Y22471D01*
X25618Y22457D01*
X25636Y22449D01*
X25654Y22439D01*
X25671Y22426D01*
X25686Y22413D01*
X25687Y22411D01*
X25690Y22410D01*
X25693Y22404D01*
X25698Y22399D01*
X25705Y22392D01*
X25712Y22382D01*
X25719Y22372D01*
X25727Y22360D01*
X25741Y22334D01*
X25755Y22300D01*
X25761Y22284D01*
X25763Y22264D01*
X25766Y22245D01*
X25768Y22224D01*
Y22221D01*
Y22214D01*
X25766Y22203D01*
X25765Y22188D01*
X25762Y22171D01*
X25757Y22152D01*
X25751Y22131D01*
X25743Y22110D01*
X25741Y22107D01*
X25738Y22101D01*
X25733Y22089D01*
X25725Y22074D01*
X25714Y22058D01*
X25700Y22037D01*
X25683Y22016D01*
X25664Y21992D01*
X25661Y21990D01*
X25654Y21981D01*
X25647Y21974D01*
X25640Y21967D01*
X25632Y21959D01*
X25621Y21948D01*
X25610Y21937D01*
X25596Y21924D01*
X25582Y21911D01*
X25565Y21895D01*
X25547Y21880D01*
X25528Y21862D01*
X25506Y21844D01*
X25483Y21825D01*
X25482Y21823D01*
X25479Y21820D01*
X25474Y21816D01*
X25467Y21811D01*
X25458Y21802D01*
X25449Y21794D01*
X25426Y21776D01*
X25403Y21755D01*
X25381Y21734D01*
X25361Y21716D01*
X25353Y21709D01*
X25346Y21703D01*
X25345Y21701D01*
X25340Y21697D01*
X25335Y21691D01*
X25328Y21683D01*
X25321Y21673D01*
X25313Y21664D01*
X25296Y21640D01*
X25769D01*
Y21526D01*
X25132D01*
Y21528D01*
Y21533D01*
Y21542D01*
X25134Y21553D01*
X25135Y21565D01*
X25138Y21579D01*
X25141Y21593D01*
X25146Y21608D01*
Y21610D01*
X25148Y21611D01*
X25150Y21619D01*
X25156Y21632D01*
X25164Y21648D01*
X25175Y21668D01*
X25189Y21690D01*
X25205Y21712D01*
X25224Y21736D01*
Y21737D01*
X25227Y21739D01*
X25234Y21747D01*
X25246Y21759D01*
X25264Y21777D01*
X25285Y21798D01*
X25311Y21823D01*
X25343Y21851D01*
X25378Y21880D01*
X25379Y21881D01*
X25385Y21886D01*
X25393Y21893D01*
X25403Y21901D01*
X25415Y21912D01*
X25431Y21924D01*
X25446Y21938D01*
X25464Y21954D01*
X25499Y21987D01*
X25533Y22020D01*
X25550Y22037D01*
X25565Y22053D01*
X25579Y22069D01*
X25590Y22084D01*
Y22085D01*
X25593Y22087D01*
X25596Y22091D01*
X25598Y22096D01*
X25608Y22112D01*
X25619Y22130D01*
X25629Y22152D01*
X25639Y22175D01*
X25644Y22202D01*
X25647Y22227D01*
Y22228D01*
Y22230D01*
X25646Y22238D01*
X25644Y22252D01*
X25640Y22267D01*
X25634Y22286D01*
X25625Y22306D01*
X25612Y22325D01*
X25596Y22345D01*
X25593Y22347D01*
X25586Y22353D01*
X25576Y22360D01*
X25561Y22370D01*
X25542Y22378D01*
X25519Y22386D01*
X25493Y22392D01*
X25464Y22393D01*
X25456D01*
X25450Y22392D01*
X25433Y22390D01*
X25414Y22386D01*
X25393Y22381D01*
X25370Y22371D01*
X25347Y22358D01*
X25327Y22342D01*
X25324Y22339D01*
X25318Y22332D01*
X25310Y22321D01*
X25302Y22304D01*
X25292Y22285D01*
X25284Y22260D01*
X25278Y22232D01*
X25275Y22200D01*
X25155Y22213D01*
Y22214D01*
X25156Y22218D01*
Y22225D01*
X25157Y22235D01*
X25160Y22246D01*
X25163Y22259D01*
X25167Y22274D01*
X25171Y22289D01*
X25182Y22322D01*
X25199Y22356D01*
X25209Y22372D01*
X25221Y22389D01*
X25234Y22404D01*
X25248Y22418D01*
X25249Y22420D01*
X25252Y22421D01*
X25256Y22425D01*
X25263Y22429D01*
X25271Y22435D01*
X25281Y22440D01*
X25292Y22447D01*
X25306Y22454D01*
X25321Y22461D01*
X25338Y22468D01*
X25356Y22474D01*
X25375Y22479D01*
X25396Y22483D01*
X25418Y22487D01*
X25442Y22489D01*
X25467Y22490D01*
X25481D01*
X25490Y22489D01*
D02*
G37*
G36*
X28573Y30431D02*
Y30430D01*
Y30424D01*
Y30417D01*
Y30408D01*
X28572Y30395D01*
Y30381D01*
X28571Y30365D01*
X28569Y30348D01*
X28565Y30311D01*
X28560Y30272D01*
X28551Y30234D01*
X28546Y30216D01*
X28540Y30200D01*
Y30198D01*
X28539Y30196D01*
X28536Y30191D01*
X28533Y30186D01*
X28525Y30171D01*
X28512Y30151D01*
X28496Y30129D01*
X28476Y30107D01*
X28451Y30083D01*
X28421Y30062D01*
X28420D01*
X28417Y30060D01*
X28413Y30058D01*
X28406Y30054D01*
X28397Y30050D01*
X28386Y30046D01*
X28375Y30042D01*
X28361Y30036D01*
X28346Y30031D01*
X28329Y30026D01*
X28311Y30022D01*
X28291Y30018D01*
X28270Y30015D01*
X28248Y30013D01*
X28198Y30010D01*
X28185D01*
X28175Y30011D01*
X28164D01*
X28151Y30013D01*
X28135Y30014D01*
X28120Y30015D01*
X28085Y30021D01*
X28048Y30029D01*
X28012Y30040D01*
X27977Y30056D01*
X27976D01*
X27973Y30058D01*
X27969Y30061D01*
X27963Y30064D01*
X27948Y30075D01*
X27930Y30090D01*
X27909Y30110D01*
X27890Y30132D01*
X27870Y30160D01*
X27855Y30190D01*
Y30191D01*
X27854Y30194D01*
X27852Y30200D01*
X27850Y30207D01*
X27847Y30215D01*
X27844Y30226D01*
X27840Y30239D01*
X27837Y30254D01*
X27834Y30270D01*
X27830Y30289D01*
X27827Y30308D01*
X27825Y30329D01*
X27822Y30352D01*
X27820Y30377D01*
X27819Y30404D01*
Y30431D01*
Y30986D01*
X27947D01*
Y30431D01*
Y30430D01*
Y30426D01*
Y30419D01*
Y30411D01*
X27948Y30401D01*
Y30388D01*
X27949Y30362D01*
X27952Y30331D01*
X27956Y30301D01*
X27962Y30272D01*
X27965Y30259D01*
X27969Y30247D01*
X27970Y30244D01*
X27973Y30237D01*
X27980Y30227D01*
X27988Y30214D01*
X27998Y30200D01*
X28012Y30184D01*
X28028Y30169D01*
X28048Y30157D01*
X28051Y30155D01*
X28058Y30151D01*
X28070Y30147D01*
X28087Y30142D01*
X28106Y30135D01*
X28131Y30130D01*
X28157Y30126D01*
X28187Y30125D01*
X28200D01*
X28209Y30126D01*
X28221D01*
X28234Y30128D01*
X28264Y30133D01*
X28298Y30140D01*
X28329Y30151D01*
X28360Y30166D01*
X28374Y30176D01*
X28386Y30187D01*
X28388Y30189D01*
X28389Y30190D01*
X28392Y30194D01*
X28396Y30200D01*
X28400Y30208D01*
X28406Y30216D01*
X28411Y30229D01*
X28417Y30241D01*
X28422Y30257D01*
X28427Y30275D01*
X28432Y30295D01*
X28436Y30318D01*
X28440Y30343D01*
X28443Y30369D01*
X28446Y30399D01*
Y30431D01*
Y30986D01*
X28573D01*
Y30431D01*
D02*
G37*
G36*
X29181Y30026D02*
X29063D01*
Y30777D01*
X29062Y30775D01*
X29055Y30770D01*
X29046Y30761D01*
X29033Y30752D01*
X29017Y30739D01*
X28998Y30725D01*
X28976Y30710D01*
X28951Y30695D01*
X28949D01*
X28948Y30693D01*
X28940Y30688D01*
X28926Y30681D01*
X28909Y30673D01*
X28890Y30663D01*
X28869Y30653D01*
X28848Y30644D01*
X28827Y30635D01*
Y30749D01*
X28829D01*
X28831Y30752D01*
X28837Y30753D01*
X28844Y30757D01*
X28852Y30761D01*
X28862Y30767D01*
X28886Y30781D01*
X28913Y30796D01*
X28941Y30816D01*
X28970Y30838D01*
X28999Y30861D01*
X29001Y30863D01*
X29002Y30864D01*
X29006Y30868D01*
X29012Y30872D01*
X29024Y30886D01*
X29041Y30903D01*
X29058Y30922D01*
X29076Y30944D01*
X29091Y30967D01*
X29105Y30990D01*
X29181D01*
Y30026D01*
D02*
G37*
G36*
X14490Y23231D02*
X14501Y23229D01*
X14515Y23228D01*
X14530Y23225D01*
X14546Y23222D01*
X14582Y23213D01*
X14618Y23199D01*
X14636Y23190D01*
X14654Y23181D01*
X14671Y23168D01*
X14686Y23154D01*
X14687Y23153D01*
X14690Y23151D01*
X14693Y23146D01*
X14698Y23140D01*
X14705Y23133D01*
X14712Y23124D01*
X14719Y23114D01*
X14727Y23102D01*
X14741Y23075D01*
X14755Y23042D01*
X14761Y23025D01*
X14763Y23006D01*
X14766Y22986D01*
X14768Y22966D01*
Y22963D01*
Y22956D01*
X14766Y22945D01*
X14765Y22930D01*
X14762Y22913D01*
X14757Y22894D01*
X14751Y22873D01*
X14743Y22852D01*
X14741Y22849D01*
X14738Y22842D01*
X14733Y22831D01*
X14725Y22816D01*
X14714Y22799D01*
X14700Y22778D01*
X14683Y22758D01*
X14664Y22734D01*
X14661Y22731D01*
X14654Y22723D01*
X14647Y22716D01*
X14640Y22709D01*
X14632Y22701D01*
X14621Y22690D01*
X14610Y22679D01*
X14596Y22666D01*
X14582Y22652D01*
X14565Y22637D01*
X14547Y22622D01*
X14528Y22604D01*
X14506Y22586D01*
X14483Y22566D01*
X14482Y22565D01*
X14479Y22562D01*
X14474Y22558D01*
X14467Y22552D01*
X14458Y22544D01*
X14449Y22536D01*
X14426Y22518D01*
X14403Y22497D01*
X14381Y22476D01*
X14361Y22458D01*
X14353Y22451D01*
X14346Y22444D01*
X14345Y22443D01*
X14340Y22439D01*
X14335Y22433D01*
X14328Y22425D01*
X14321Y22415D01*
X14313Y22405D01*
X14296Y22382D01*
X14769D01*
Y22268D01*
X14132D01*
Y22269D01*
Y22275D01*
Y22283D01*
X14134Y22294D01*
X14135Y22307D01*
X14138Y22321D01*
X14141Y22335D01*
X14146Y22350D01*
Y22351D01*
X14148Y22353D01*
X14150Y22361D01*
X14156Y22373D01*
X14164Y22390D01*
X14175Y22410D01*
X14189Y22432D01*
X14205Y22454D01*
X14224Y22477D01*
Y22479D01*
X14227Y22480D01*
X14234Y22489D01*
X14246Y22501D01*
X14264Y22519D01*
X14285Y22540D01*
X14311Y22565D01*
X14343Y22593D01*
X14378Y22622D01*
X14379Y22623D01*
X14385Y22627D01*
X14393Y22634D01*
X14403Y22643D01*
X14415Y22654D01*
X14431Y22666D01*
X14446Y22680D01*
X14464Y22695D01*
X14499Y22729D01*
X14533Y22762D01*
X14550Y22778D01*
X14565Y22795D01*
X14579Y22810D01*
X14590Y22826D01*
Y22827D01*
X14593Y22828D01*
X14596Y22833D01*
X14598Y22838D01*
X14608Y22853D01*
X14619Y22871D01*
X14629Y22894D01*
X14639Y22917D01*
X14644Y22943D01*
X14647Y22968D01*
Y22970D01*
Y22971D01*
X14646Y22980D01*
X14644Y22993D01*
X14640Y23009D01*
X14634Y23028D01*
X14625Y23047D01*
X14612Y23067D01*
X14596Y23086D01*
X14593Y23089D01*
X14586Y23095D01*
X14576Y23102D01*
X14561Y23111D01*
X14542Y23120D01*
X14519Y23128D01*
X14493Y23133D01*
X14464Y23135D01*
X14456D01*
X14450Y23133D01*
X14433Y23132D01*
X14414Y23128D01*
X14393Y23122D01*
X14370Y23113D01*
X14347Y23100D01*
X14327Y23084D01*
X14324Y23081D01*
X14318Y23074D01*
X14310Y23063D01*
X14302Y23046D01*
X14292Y23027D01*
X14284Y23002D01*
X14278Y22974D01*
X14275Y22942D01*
X14155Y22955D01*
Y22956D01*
X14156Y22960D01*
Y22967D01*
X14157Y22977D01*
X14160Y22988D01*
X14163Y23000D01*
X14167Y23016D01*
X14171Y23031D01*
X14182Y23064D01*
X14199Y23097D01*
X14209Y23114D01*
X14221Y23131D01*
X14234Y23146D01*
X14248Y23160D01*
X14249Y23161D01*
X14252Y23163D01*
X14256Y23167D01*
X14263Y23171D01*
X14271Y23176D01*
X14281Y23182D01*
X14292Y23189D01*
X14306Y23196D01*
X14321Y23203D01*
X14338Y23210D01*
X14356Y23215D01*
X14375Y23221D01*
X14396Y23225D01*
X14418Y23229D01*
X14442Y23231D01*
X14467Y23232D01*
X14481D01*
X14490Y23231D01*
D02*
G37*
G36*
X13687Y23226D02*
X13700D01*
X13729Y23225D01*
X13759Y23221D01*
X13793Y23217D01*
X13823Y23210D01*
X13838Y23206D01*
X13851Y23201D01*
X13852D01*
X13854Y23200D01*
X13862Y23196D01*
X13874Y23190D01*
X13890Y23181D01*
X13906Y23168D01*
X13924Y23151D01*
X13941Y23132D01*
X13958Y23110D01*
Y23108D01*
X13959Y23107D01*
X13965Y23099D01*
X13970Y23085D01*
X13979Y23067D01*
X13985Y23046D01*
X13992Y23021D01*
X13997Y22995D01*
X13998Y22966D01*
Y22964D01*
Y22961D01*
Y22956D01*
X13997Y22949D01*
Y22939D01*
X13995Y22930D01*
X13990Y22906D01*
X13981Y22878D01*
X13970Y22849D01*
X13954Y22820D01*
X13942Y22806D01*
X13931Y22792D01*
X13930Y22791D01*
X13929Y22790D01*
X13924Y22785D01*
X13919Y22781D01*
X13912Y22776D01*
X13904Y22770D01*
X13893Y22763D01*
X13881Y22755D01*
X13868Y22748D01*
X13852Y22741D01*
X13836Y22733D01*
X13818Y22726D01*
X13797Y22720D01*
X13776Y22713D01*
X13752Y22709D01*
X13727Y22705D01*
X13730Y22704D01*
X13736Y22701D01*
X13744Y22695D01*
X13755Y22690D01*
X13780Y22674D01*
X13793Y22665D01*
X13804Y22656D01*
X13807Y22654D01*
X13813Y22647D01*
X13825Y22636D01*
X13838Y22622D01*
X13854Y22602D01*
X13872Y22581D01*
X13890Y22557D01*
X13909Y22529D01*
X14074Y22268D01*
X13916D01*
X13790Y22468D01*
Y22469D01*
X13787Y22472D01*
X13784Y22476D01*
X13780Y22482D01*
X13770Y22497D01*
X13758Y22516D01*
X13743Y22537D01*
X13727Y22559D01*
X13712Y22580D01*
X13698Y22600D01*
X13697Y22601D01*
X13693Y22606D01*
X13686Y22615D01*
X13676Y22624D01*
X13655Y22645D01*
X13644Y22655D01*
X13633Y22663D01*
X13632Y22665D01*
X13629Y22666D01*
X13623Y22669D01*
X13615Y22673D01*
X13607Y22677D01*
X13597Y22681D01*
X13575Y22688D01*
X13574D01*
X13571Y22690D01*
X13565D01*
X13558Y22691D01*
X13549Y22692D01*
X13537D01*
X13522Y22694D01*
X13359D01*
Y22268D01*
X13231D01*
Y23228D01*
X13676D01*
X13687Y23226D01*
D02*
G37*
G36*
X30931Y22768D02*
X30813D01*
Y23518D01*
X30812Y23517D01*
X30805Y23511D01*
X30796Y23503D01*
X30783Y23493D01*
X30767Y23481D01*
X30748Y23467D01*
X30726Y23452D01*
X30701Y23437D01*
X30699D01*
X30698Y23435D01*
X30690Y23430D01*
X30676Y23423D01*
X30659Y23414D01*
X30640Y23405D01*
X30619Y23395D01*
X30598Y23385D01*
X30577Y23377D01*
Y23491D01*
X30579D01*
X30581Y23493D01*
X30587Y23495D01*
X30594Y23499D01*
X30602Y23503D01*
X30612Y23509D01*
X30636Y23523D01*
X30663Y23538D01*
X30691Y23557D01*
X30720Y23579D01*
X30749Y23603D01*
X30751Y23604D01*
X30752Y23606D01*
X30756Y23610D01*
X30762Y23614D01*
X30774Y23628D01*
X30791Y23645D01*
X30808Y23664D01*
X30826Y23686D01*
X30841Y23708D01*
X30855Y23732D01*
X30931D01*
Y22768D01*
D02*
G37*
G36*
X30025Y23726D02*
X30038D01*
X30067Y23725D01*
X30097Y23721D01*
X30131Y23717D01*
X30161Y23710D01*
X30177Y23706D01*
X30189Y23701D01*
X30190D01*
X30192Y23700D01*
X30200Y23696D01*
X30213Y23690D01*
X30228Y23681D01*
X30244Y23668D01*
X30262Y23651D01*
X30279Y23632D01*
X30296Y23610D01*
Y23608D01*
X30297Y23607D01*
X30303Y23599D01*
X30308Y23585D01*
X30317Y23567D01*
X30324Y23546D01*
X30330Y23521D01*
X30335Y23495D01*
X30336Y23466D01*
Y23464D01*
Y23461D01*
Y23456D01*
X30335Y23449D01*
Y23439D01*
X30333Y23430D01*
X30328Y23406D01*
X30319Y23378D01*
X30308Y23349D01*
X30292Y23320D01*
X30281Y23306D01*
X30269Y23292D01*
X30268Y23291D01*
X30267Y23290D01*
X30262Y23285D01*
X30257Y23281D01*
X30250Y23276D01*
X30242Y23270D01*
X30231Y23263D01*
X30219Y23255D01*
X30206Y23248D01*
X30190Y23241D01*
X30174Y23233D01*
X30156Y23226D01*
X30135Y23220D01*
X30114Y23213D01*
X30091Y23209D01*
X30066Y23205D01*
X30068Y23204D01*
X30074Y23201D01*
X30082Y23195D01*
X30093Y23190D01*
X30118Y23174D01*
X30131Y23165D01*
X30142Y23156D01*
X30145Y23154D01*
X30152Y23147D01*
X30163Y23136D01*
X30177Y23122D01*
X30192Y23102D01*
X30210Y23081D01*
X30228Y23057D01*
X30247Y23029D01*
X30412Y22768D01*
X30254D01*
X30128Y22968D01*
Y22969D01*
X30125Y22972D01*
X30122Y22976D01*
X30118Y22982D01*
X30109Y22997D01*
X30096Y23016D01*
X30081Y23037D01*
X30066Y23059D01*
X30050Y23080D01*
X30036Y23100D01*
X30035Y23101D01*
X30031Y23106D01*
X30024Y23115D01*
X30014Y23124D01*
X29993Y23145D01*
X29982Y23155D01*
X29971Y23163D01*
X29970Y23165D01*
X29967Y23166D01*
X29962Y23169D01*
X29953Y23173D01*
X29945Y23177D01*
X29935Y23181D01*
X29913Y23188D01*
X29912D01*
X29909Y23190D01*
X29903D01*
X29896Y23191D01*
X29887Y23192D01*
X29876D01*
X29860Y23194D01*
X29697D01*
Y22768D01*
X29569D01*
Y23728D01*
X30014D01*
X30025Y23726D01*
D02*
G37*
G36*
X18145Y7018D02*
X18027D01*
Y7768D01*
X18026Y7767D01*
X18019Y7761D01*
X18010Y7753D01*
X17996Y7743D01*
X17981Y7731D01*
X17962Y7717D01*
X17940Y7702D01*
X17915Y7687D01*
X17913D01*
X17912Y7685D01*
X17904Y7680D01*
X17890Y7673D01*
X17873Y7664D01*
X17854Y7655D01*
X17833Y7645D01*
X17812Y7635D01*
X17791Y7627D01*
Y7741D01*
X17793D01*
X17795Y7743D01*
X17801Y7745D01*
X17808Y7749D01*
X17816Y7753D01*
X17826Y7759D01*
X17849Y7773D01*
X17877Y7788D01*
X17905Y7807D01*
X17934Y7829D01*
X17963Y7853D01*
X17965Y7854D01*
X17966Y7856D01*
X17970Y7860D01*
X17976Y7864D01*
X17988Y7878D01*
X18005Y7895D01*
X18021Y7914D01*
X18039Y7936D01*
X18055Y7958D01*
X18069Y7982D01*
X18145D01*
Y7018D01*
D02*
G37*
G36*
X17270Y7976D02*
X17293Y7975D01*
X17318Y7974D01*
X17342Y7971D01*
X17363Y7968D01*
X17365D01*
X17375Y7965D01*
X17388Y7963D01*
X17404Y7958D01*
X17422Y7951D01*
X17442Y7943D01*
X17463Y7933D01*
X17481Y7922D01*
X17483Y7921D01*
X17489Y7917D01*
X17497Y7908D01*
X17508Y7899D01*
X17521Y7886D01*
X17533Y7870D01*
X17547Y7852D01*
X17558Y7831D01*
X17560Y7828D01*
X17562Y7821D01*
X17568Y7809D01*
X17574Y7792D01*
X17578Y7773D01*
X17583Y7750D01*
X17586Y7725D01*
X17587Y7699D01*
Y7698D01*
Y7693D01*
Y7688D01*
X17586Y7678D01*
X17585Y7668D01*
X17583Y7656D01*
X17580Y7642D01*
X17578Y7627D01*
X17568Y7595D01*
X17562Y7578D01*
X17554Y7560D01*
X17544Y7542D01*
X17535Y7526D01*
X17522Y7509D01*
X17508Y7492D01*
X17507Y7491D01*
X17504Y7488D01*
X17500Y7484D01*
X17493Y7480D01*
X17485Y7473D01*
X17474Y7466D01*
X17460Y7458D01*
X17445Y7451D01*
X17427Y7442D01*
X17406Y7434D01*
X17384Y7427D01*
X17357Y7422D01*
X17329Y7416D01*
X17299Y7412D01*
X17264Y7409D01*
X17228Y7408D01*
X16983D01*
Y7018D01*
X16855D01*
Y7978D01*
X17249D01*
X17270Y7976D01*
D02*
G37*
G36*
X46213Y28831D02*
Y28830D01*
Y28826D01*
Y28820D01*
Y28812D01*
X46211Y28801D01*
Y28790D01*
X46208Y28764D01*
X46206Y28733D01*
X46200Y28701D01*
X46192Y28672D01*
X46182Y28644D01*
Y28643D01*
X46181Y28642D01*
X46176Y28633D01*
X46170Y28622D01*
X46160Y28607D01*
X46146Y28592D01*
X46131Y28575D01*
X46111Y28558D01*
X46089Y28544D01*
X46086Y28543D01*
X46078Y28539D01*
X46066Y28533D01*
X46048Y28528D01*
X46025Y28521D01*
X46000Y28515D01*
X45973Y28511D01*
X45942Y28510D01*
X45930D01*
X45921Y28511D01*
X45910Y28513D01*
X45899Y28514D01*
X45870Y28519D01*
X45839Y28528D01*
X45808Y28540D01*
X45791Y28549D01*
X45776Y28558D01*
X45762Y28569D01*
X45748Y28582D01*
X45747Y28583D01*
X45745Y28585D01*
X45742Y28590D01*
X45738Y28596D01*
X45733Y28603D01*
X45727Y28612D01*
X45722Y28623D01*
X45715Y28636D01*
X45709Y28650D01*
X45704Y28666D01*
X45698Y28683D01*
X45692Y28703D01*
X45690Y28723D01*
X45686Y28747D01*
X45684Y28770D01*
Y28797D01*
X45799Y28813D01*
Y28812D01*
Y28809D01*
Y28804D01*
X45801Y28795D01*
X45802Y28787D01*
Y28777D01*
X45806Y28754D01*
X45810Y28729D01*
X45819Y28704D01*
X45827Y28682D01*
X45833Y28672D01*
X45839Y28664D01*
X45841Y28662D01*
X45846Y28658D01*
X45855Y28651D01*
X45866Y28644D01*
X45881Y28636D01*
X45898Y28630D01*
X45919Y28625D01*
X45941Y28623D01*
X45949D01*
X45957Y28625D01*
X45970Y28626D01*
X45982Y28629D01*
X45996Y28632D01*
X46010Y28637D01*
X46024Y28644D01*
X46025Y28646D01*
X46029Y28648D01*
X46035Y28654D01*
X46043Y28660D01*
X46050Y28669D01*
X46059Y28679D01*
X46066Y28690D01*
X46071Y28704D01*
Y28705D01*
X46074Y28711D01*
X46075Y28721D01*
X46078Y28733D01*
X46081Y28750D01*
X46082Y28770D01*
X46085Y28795D01*
Y28825D01*
Y29486D01*
X46213D01*
Y28831D01*
D02*
G37*
G36*
X46816Y28526D02*
X46698D01*
Y29277D01*
X46697Y29275D01*
X46690Y29270D01*
X46681Y29261D01*
X46667Y29252D01*
X46652Y29239D01*
X46633Y29225D01*
X46611Y29210D01*
X46586Y29195D01*
X46584D01*
X46583Y29193D01*
X46575Y29188D01*
X46561Y29181D01*
X46544Y29173D01*
X46525Y29163D01*
X46504Y29153D01*
X46483Y29144D01*
X46462Y29135D01*
Y29249D01*
X46464D01*
X46466Y29252D01*
X46472Y29253D01*
X46479Y29257D01*
X46487Y29261D01*
X46497Y29267D01*
X46520Y29281D01*
X46548Y29296D01*
X46576Y29316D01*
X46605Y29338D01*
X46634Y29361D01*
X46636Y29363D01*
X46637Y29364D01*
X46641Y29368D01*
X46647Y29372D01*
X46659Y29386D01*
X46676Y29403D01*
X46692Y29422D01*
X46710Y29444D01*
X46726Y29467D01*
X46740Y29490D01*
X46816D01*
Y28526D01*
D02*
G37*
G36*
X36182Y33268D02*
X36064D01*
Y34018D01*
X36062Y34017D01*
X36055Y34011D01*
X36047Y34003D01*
X36033Y33993D01*
X36018Y33981D01*
X35999Y33967D01*
X35976Y33952D01*
X35951Y33937D01*
X35950D01*
X35949Y33935D01*
X35940Y33930D01*
X35926Y33923D01*
X35910Y33914D01*
X35890Y33905D01*
X35870Y33895D01*
X35849Y33885D01*
X35828Y33877D01*
Y33991D01*
X35829D01*
X35832Y33993D01*
X35838Y33995D01*
X35845Y33999D01*
X35853Y34003D01*
X35863Y34009D01*
X35886Y34023D01*
X35914Y34038D01*
X35942Y34057D01*
X35971Y34079D01*
X36000Y34103D01*
X36001Y34104D01*
X36003Y34106D01*
X36007Y34110D01*
X36012Y34114D01*
X36025Y34128D01*
X36042Y34145D01*
X36058Y34164D01*
X36076Y34186D01*
X36091Y34208D01*
X36105Y34232D01*
X36182D01*
Y33268D01*
D02*
G37*
G36*
X35212Y34226D02*
X35240Y34225D01*
X35268Y34222D01*
X35295Y34218D01*
X35319Y34214D01*
X35320D01*
X35323Y34213D01*
X35327D01*
X35333Y34210D01*
X35348Y34206D01*
X35368Y34199D01*
X35390Y34189D01*
X35413Y34176D01*
X35437Y34163D01*
X35459Y34145D01*
X35460Y34143D01*
X35462Y34142D01*
X35466Y34138D01*
X35472Y34133D01*
X35485Y34120D01*
X35502Y34100D01*
X35520Y34077D01*
X35540Y34049D01*
X35558Y34017D01*
X35573Y33981D01*
Y33980D01*
X35574Y33977D01*
X35577Y33971D01*
X35578Y33963D01*
X35583Y33953D01*
X35585Y33942D01*
X35588Y33930D01*
X35592Y33914D01*
X35596Y33899D01*
X35599Y33881D01*
X35606Y33842D01*
X35610Y33799D01*
X35612Y33752D01*
Y33751D01*
Y33748D01*
Y33741D01*
Y33734D01*
X35610Y33724D01*
Y33713D01*
X35609Y33687D01*
X35605Y33656D01*
X35601Y33624D01*
X35594Y33591D01*
X35585Y33558D01*
Y33557D01*
X35584Y33554D01*
X35583Y33550D01*
X35581Y33544D01*
X35576Y33529D01*
X35567Y33509D01*
X35559Y33487D01*
X35548Y33465D01*
X35534Y33441D01*
X35520Y33419D01*
X35519Y33416D01*
X35513Y33410D01*
X35505Y33400D01*
X35494Y33387D01*
X35481Y33373D01*
X35466Y33360D01*
X35451Y33344D01*
X35433Y33332D01*
X35430Y33330D01*
X35424Y33326D01*
X35415Y33321D01*
X35401Y33314D01*
X35384Y33306D01*
X35365Y33299D01*
X35343Y33290D01*
X35318Y33283D01*
X35315D01*
X35311Y33282D01*
X35307Y33281D01*
X35293Y33279D01*
X35273Y33276D01*
X35251Y33274D01*
X35225Y33271D01*
X35196Y33269D01*
X35164Y33268D01*
X34818D01*
Y34228D01*
X35187D01*
X35212Y34226D01*
D02*
G37*
G36*
X11561Y19245D02*
X11573Y19244D01*
X11588Y19242D01*
X11604Y19241D01*
X11622Y19237D01*
X11659Y19228D01*
X11701Y19216D01*
X11722Y19208D01*
X11741Y19198D01*
X11760Y19185D01*
X11780Y19173D01*
X11781Y19172D01*
X11784Y19170D01*
X11790Y19166D01*
X11797Y19159D01*
X11803Y19152D01*
X11813Y19142D01*
X11823Y19131D01*
X11834Y19120D01*
X11845Y19106D01*
X11856Y19090D01*
X11869Y19073D01*
X11880Y19055D01*
X11889Y19034D01*
X11901Y19014D01*
X11909Y18991D01*
X11917Y18966D01*
X11792Y18937D01*
Y18939D01*
X11791Y18941D01*
X11788Y18947D01*
X11785Y18954D01*
X11783Y18962D01*
X11778Y18973D01*
X11767Y18995D01*
X11754Y19020D01*
X11737Y19045D01*
X11716Y19069D01*
X11694Y19090D01*
X11691Y19093D01*
X11683Y19098D01*
X11669Y19105D01*
X11651Y19115D01*
X11627Y19123D01*
X11601Y19131D01*
X11569Y19137D01*
X11534Y19138D01*
X11523D01*
X11516Y19137D01*
X11507D01*
X11496Y19136D01*
X11469Y19131D01*
X11440Y19126D01*
X11410Y19116D01*
X11378Y19102D01*
X11349Y19084D01*
X11347D01*
X11346Y19081D01*
X11336Y19075D01*
X11324Y19063D01*
X11308Y19047D01*
X11290Y19026D01*
X11274Y19002D01*
X11258Y18973D01*
X11245Y18941D01*
Y18940D01*
X11243Y18937D01*
X11242Y18933D01*
X11240Y18926D01*
X11238Y18918D01*
X11235Y18908D01*
X11231Y18885D01*
X11225Y18857D01*
X11220Y18826D01*
X11217Y18793D01*
X11215Y18757D01*
Y18756D01*
Y18751D01*
Y18744D01*
Y18736D01*
X11217Y18726D01*
Y18714D01*
X11218Y18700D01*
X11220Y18685D01*
X11224Y18652D01*
X11231Y18615D01*
X11239Y18579D01*
X11250Y18543D01*
Y18542D01*
X11251Y18539D01*
X11254Y18535D01*
X11257Y18528D01*
X11265Y18511D01*
X11278Y18492D01*
X11293Y18470D01*
X11312Y18446D01*
X11335Y18425D01*
X11361Y18406D01*
X11362D01*
X11365Y18405D01*
X11369Y18402D01*
X11375Y18399D01*
X11382Y18396D01*
X11390Y18392D01*
X11410Y18384D01*
X11435Y18376D01*
X11462Y18369D01*
X11493Y18363D01*
X11525Y18362D01*
X11534D01*
X11543Y18363D01*
X11552D01*
X11562Y18364D01*
X11587Y18370D01*
X11616Y18377D01*
X11645Y18388D01*
X11676Y18403D01*
X11691Y18412D01*
X11705Y18423D01*
X11706Y18424D01*
X11708Y18425D01*
X11712Y18430D01*
X11717Y18434D01*
X11723Y18441D01*
X11730Y18449D01*
X11738Y18457D01*
X11745Y18468D01*
X11754Y18481D01*
X11763Y18495D01*
X11772Y18509D01*
X11780Y18525D01*
X11787Y18543D01*
X11794Y18563D01*
X11801Y18584D01*
X11806Y18606D01*
X11934Y18574D01*
Y18572D01*
X11932Y18567D01*
X11930Y18559D01*
X11925Y18548D01*
X11921Y18535D01*
X11916Y18520D01*
X11909Y18503D01*
X11901Y18485D01*
X11881Y18446D01*
X11856Y18407D01*
X11841Y18388D01*
X11826Y18369D01*
X11809Y18352D01*
X11790Y18335D01*
X11788Y18334D01*
X11785Y18331D01*
X11778Y18328D01*
X11772Y18323D01*
X11760Y18316D01*
X11749Y18309D01*
X11734Y18302D01*
X11719Y18295D01*
X11701Y18287D01*
X11681Y18280D01*
X11661Y18273D01*
X11638Y18266D01*
X11615Y18260D01*
X11590Y18258D01*
X11564Y18255D01*
X11536Y18254D01*
X11521D01*
X11509Y18255D01*
X11497D01*
X11482Y18256D01*
X11465Y18259D01*
X11446Y18262D01*
X11405Y18269D01*
X11364Y18280D01*
X11322Y18295D01*
X11303Y18305D01*
X11283Y18316D01*
X11282Y18317D01*
X11279Y18319D01*
X11274Y18323D01*
X11268Y18328D01*
X11260Y18334D01*
X11250Y18342D01*
X11239Y18352D01*
X11228Y18363D01*
X11217Y18376D01*
X11204Y18388D01*
X11179Y18420D01*
X11156Y18457D01*
X11135Y18499D01*
Y18500D01*
X11132Y18505D01*
X11131Y18511D01*
X11127Y18520D01*
X11124Y18531D01*
X11120Y18545D01*
X11114Y18560D01*
X11110Y18577D01*
X11106Y18595D01*
X11100Y18615D01*
X11093Y18658D01*
X11088Y18707D01*
X11085Y18757D01*
Y18758D01*
Y18764D01*
Y18772D01*
X11086Y18782D01*
Y18796D01*
X11088Y18810D01*
X11089Y18828D01*
X11092Y18846D01*
X11099Y18886D01*
X11109Y18930D01*
X11123Y18975D01*
X11142Y19018D01*
X11143Y19019D01*
X11145Y19023D01*
X11147Y19029D01*
X11153Y19036D01*
X11159Y19045D01*
X11165Y19056D01*
X11184Y19081D01*
X11207Y19109D01*
X11235Y19137D01*
X11267Y19165D01*
X11304Y19188D01*
X11306Y19190D01*
X11310Y19191D01*
X11315Y19194D01*
X11322Y19198D01*
X11333Y19202D01*
X11344Y19206D01*
X11358Y19212D01*
X11374Y19217D01*
X11390Y19223D01*
X11408Y19228D01*
X11447Y19237D01*
X11491Y19244D01*
X11537Y19246D01*
X11551D01*
X11561Y19245D01*
D02*
G37*
G36*
X12486Y18270D02*
X12368D01*
Y19020D01*
X12366Y19019D01*
X12360Y19014D01*
X12351Y19005D01*
X12337Y18995D01*
X12322Y18983D01*
X12303Y18969D01*
X12281Y18954D01*
X12256Y18939D01*
X12254D01*
X12253Y18937D01*
X12244Y18932D01*
X12231Y18925D01*
X12214Y18916D01*
X12195Y18907D01*
X12174Y18897D01*
X12153Y18887D01*
X12132Y18879D01*
Y18993D01*
X12134D01*
X12136Y18995D01*
X12142Y18997D01*
X12149Y19001D01*
X12157Y19005D01*
X12167Y19011D01*
X12190Y19025D01*
X12218Y19040D01*
X12246Y19059D01*
X12275Y19081D01*
X12304Y19105D01*
X12305Y19106D01*
X12307Y19108D01*
X12311Y19112D01*
X12317Y19116D01*
X12329Y19130D01*
X12346Y19147D01*
X12362Y19166D01*
X12380Y19188D01*
X12396Y19210D01*
X12409Y19234D01*
X12486D01*
Y18270D01*
D02*
G37*
G36*
X13129Y19233D02*
X13147Y19230D01*
X13168Y19226D01*
X13190Y19220D01*
X13214Y19213D01*
X13236Y19202D01*
X13237D01*
X13239Y19201D01*
X13246Y19197D01*
X13257Y19190D01*
X13271Y19180D01*
X13286Y19166D01*
X13303Y19151D01*
X13318Y19133D01*
X13333Y19112D01*
X13335Y19109D01*
X13340Y19102D01*
X13346Y19090D01*
X13355Y19072D01*
X13364Y19051D01*
X13375Y19027D01*
X13384Y19000D01*
X13393Y18969D01*
Y18968D01*
X13394Y18965D01*
X13396Y18961D01*
X13397Y18954D01*
X13398Y18946D01*
X13400Y18936D01*
X13402Y18923D01*
X13404Y18909D01*
X13407Y18894D01*
X13408Y18878D01*
X13409Y18858D01*
X13412Y18839D01*
X13414Y18817D01*
Y18794D01*
X13415Y18769D01*
Y18743D01*
Y18742D01*
Y18736D01*
Y18726D01*
Y18715D01*
X13414Y18700D01*
Y18683D01*
X13412Y18665D01*
X13411Y18646D01*
X13407Y18602D01*
X13400Y18556D01*
X13391Y18511D01*
X13386Y18491D01*
X13379Y18470D01*
Y18468D01*
X13377Y18466D01*
X13375Y18460D01*
X13372Y18453D01*
X13369Y18444D01*
X13364Y18434D01*
X13353Y18410D01*
X13339Y18385D01*
X13321Y18358D01*
X13300Y18333D01*
X13275Y18309D01*
X13273D01*
X13272Y18306D01*
X13268Y18303D01*
X13262Y18301D01*
X13255Y18296D01*
X13249Y18291D01*
X13228Y18281D01*
X13203Y18272D01*
X13174Y18262D01*
X13139Y18256D01*
X13102Y18254D01*
X13088D01*
X13078Y18255D01*
X13067Y18256D01*
X13053Y18259D01*
X13038Y18262D01*
X13021Y18266D01*
X13004Y18272D01*
X12986Y18277D01*
X12968Y18285D01*
X12950Y18295D01*
X12932Y18306D01*
X12914Y18320D01*
X12898Y18335D01*
X12882Y18352D01*
X12881Y18353D01*
X12878Y18358D01*
X12874Y18364D01*
X12867Y18376D01*
X12860Y18388D01*
X12853Y18405D01*
X12844Y18424D01*
X12835Y18446D01*
X12827Y18471D01*
X12819Y18500D01*
X12810Y18532D01*
X12803Y18568D01*
X12796Y18607D01*
X12792Y18649D01*
X12789Y18695D01*
X12788Y18743D01*
Y18744D01*
Y18750D01*
Y18760D01*
Y18771D01*
X12789Y18786D01*
Y18803D01*
X12791Y18821D01*
X12792Y18842D01*
X12796Y18885D01*
X12803Y18930D01*
X12812Y18976D01*
X12817Y18997D01*
X12823Y19018D01*
Y19019D01*
X12824Y19022D01*
X12827Y19027D01*
X12830Y19034D01*
X12832Y19044D01*
X12838Y19054D01*
X12849Y19077D01*
X12863Y19102D01*
X12881Y19129D01*
X12902Y19155D01*
X12927Y19177D01*
X12928D01*
X12930Y19180D01*
X12934Y19183D01*
X12939Y19185D01*
X12946Y19191D01*
X12955Y19195D01*
X12975Y19206D01*
X13000Y19216D01*
X13029Y19226D01*
X13064Y19231D01*
X13102Y19234D01*
X13114D01*
X13129Y19233D01*
D02*
G37*
G36*
X15432Y20745D02*
X15444Y20744D01*
X15459Y20742D01*
X15475Y20741D01*
X15493Y20737D01*
X15530Y20728D01*
X15572Y20716D01*
X15593Y20708D01*
X15612Y20698D01*
X15631Y20685D01*
X15651Y20673D01*
X15652Y20672D01*
X15655Y20670D01*
X15661Y20666D01*
X15667Y20659D01*
X15674Y20652D01*
X15684Y20642D01*
X15694Y20631D01*
X15705Y20620D01*
X15716Y20606D01*
X15727Y20590D01*
X15740Y20573D01*
X15751Y20555D01*
X15760Y20534D01*
X15771Y20514D01*
X15780Y20491D01*
X15788Y20466D01*
X15663Y20437D01*
Y20439D01*
X15662Y20441D01*
X15659Y20447D01*
X15656Y20454D01*
X15654Y20462D01*
X15649Y20473D01*
X15638Y20495D01*
X15624Y20520D01*
X15608Y20545D01*
X15587Y20569D01*
X15565Y20590D01*
X15562Y20593D01*
X15554Y20598D01*
X15540Y20605D01*
X15522Y20615D01*
X15498Y20623D01*
X15472Y20631D01*
X15440Y20637D01*
X15405Y20638D01*
X15394D01*
X15387Y20637D01*
X15378D01*
X15367Y20636D01*
X15340Y20631D01*
X15311Y20626D01*
X15281Y20616D01*
X15249Y20602D01*
X15220Y20584D01*
X15218D01*
X15217Y20581D01*
X15207Y20575D01*
X15195Y20563D01*
X15179Y20547D01*
X15161Y20526D01*
X15145Y20502D01*
X15129Y20473D01*
X15116Y20441D01*
Y20440D01*
X15114Y20437D01*
X15113Y20433D01*
X15111Y20426D01*
X15109Y20418D01*
X15106Y20408D01*
X15102Y20385D01*
X15096Y20357D01*
X15091Y20326D01*
X15088Y20293D01*
X15086Y20257D01*
Y20256D01*
Y20251D01*
Y20244D01*
Y20236D01*
X15088Y20226D01*
Y20214D01*
X15089Y20200D01*
X15091Y20185D01*
X15095Y20152D01*
X15102Y20115D01*
X15110Y20079D01*
X15121Y20043D01*
Y20042D01*
X15122Y20039D01*
X15125Y20035D01*
X15128Y20028D01*
X15136Y20011D01*
X15149Y19992D01*
X15164Y19970D01*
X15183Y19946D01*
X15206Y19925D01*
X15232Y19906D01*
X15233D01*
X15236Y19905D01*
X15240Y19902D01*
X15246Y19899D01*
X15253Y19896D01*
X15261Y19892D01*
X15281Y19884D01*
X15306Y19876D01*
X15333Y19869D01*
X15364Y19863D01*
X15396Y19862D01*
X15405D01*
X15414Y19863D01*
X15423D01*
X15433Y19864D01*
X15458Y19870D01*
X15487Y19877D01*
X15516Y19888D01*
X15547Y19903D01*
X15562Y19912D01*
X15576Y19923D01*
X15577Y19924D01*
X15579Y19925D01*
X15583Y19930D01*
X15588Y19934D01*
X15594Y19941D01*
X15601Y19949D01*
X15609Y19957D01*
X15616Y19968D01*
X15624Y19981D01*
X15634Y19995D01*
X15643Y20009D01*
X15651Y20025D01*
X15658Y20043D01*
X15665Y20063D01*
X15672Y20084D01*
X15677Y20106D01*
X15805Y20074D01*
Y20072D01*
X15803Y20067D01*
X15801Y20059D01*
X15796Y20048D01*
X15792Y20035D01*
X15787Y20020D01*
X15780Y20003D01*
X15771Y19985D01*
X15752Y19946D01*
X15727Y19907D01*
X15712Y19888D01*
X15697Y19869D01*
X15680Y19852D01*
X15661Y19835D01*
X15659Y19834D01*
X15656Y19831D01*
X15649Y19828D01*
X15643Y19823D01*
X15631Y19816D01*
X15620Y19809D01*
X15605Y19802D01*
X15590Y19795D01*
X15572Y19787D01*
X15552Y19780D01*
X15532Y19773D01*
X15509Y19766D01*
X15486Y19760D01*
X15461Y19758D01*
X15434Y19755D01*
X15407Y19754D01*
X15392D01*
X15380Y19755D01*
X15368D01*
X15353Y19756D01*
X15336Y19759D01*
X15317Y19762D01*
X15276Y19769D01*
X15235Y19780D01*
X15193Y19795D01*
X15174Y19805D01*
X15154Y19816D01*
X15153Y19817D01*
X15150Y19819D01*
X15145Y19823D01*
X15139Y19828D01*
X15131Y19834D01*
X15121Y19842D01*
X15110Y19852D01*
X15099Y19863D01*
X15088Y19876D01*
X15075Y19888D01*
X15050Y19920D01*
X15027Y19957D01*
X15006Y19999D01*
Y20000D01*
X15003Y20005D01*
X15002Y20011D01*
X14998Y20020D01*
X14995Y20031D01*
X14991Y20045D01*
X14985Y20060D01*
X14981Y20077D01*
X14977Y20095D01*
X14971Y20115D01*
X14964Y20158D01*
X14959Y20207D01*
X14956Y20257D01*
Y20258D01*
Y20264D01*
Y20272D01*
X14957Y20282D01*
Y20296D01*
X14959Y20310D01*
X14960Y20328D01*
X14963Y20346D01*
X14970Y20386D01*
X14980Y20430D01*
X14993Y20475D01*
X15013Y20518D01*
X15014Y20519D01*
X15016Y20523D01*
X15018Y20529D01*
X15024Y20536D01*
X15030Y20545D01*
X15036Y20556D01*
X15054Y20581D01*
X15078Y20609D01*
X15106Y20637D01*
X15138Y20665D01*
X15175Y20688D01*
X15177Y20690D01*
X15181Y20691D01*
X15186Y20694D01*
X15193Y20698D01*
X15204Y20702D01*
X15215Y20706D01*
X15229Y20712D01*
X15245Y20717D01*
X15261Y20723D01*
X15279Y20728D01*
X15318Y20737D01*
X15362Y20744D01*
X15408Y20746D01*
X15422D01*
X15432Y20745D01*
D02*
G37*
G36*
X16231Y20733D02*
X16237D01*
X16247Y20731D01*
X16271Y20727D01*
X16297Y20722D01*
X16326Y20712D01*
X16355Y20699D01*
X16384Y20683D01*
X16386D01*
X16387Y20680D01*
X16391Y20677D01*
X16397Y20673D01*
X16411Y20662D01*
X16429Y20647D01*
X16447Y20626D01*
X16468Y20601D01*
X16486Y20572D01*
X16502Y20538D01*
Y20537D01*
X16504Y20534D01*
X16507Y20529D01*
X16509Y20522D01*
X16512Y20512D01*
X16516Y20500D01*
X16519Y20486D01*
X16523Y20471D01*
X16527Y20452D01*
X16531Y20432D01*
X16534Y20409D01*
X16537Y20386D01*
X16540Y20360D01*
X16543Y20332D01*
X16544Y20301D01*
Y20269D01*
Y20268D01*
Y20261D01*
Y20251D01*
Y20239D01*
X16543Y20224D01*
Y20206D01*
X16541Y20185D01*
X16538Y20164D01*
X16534Y20117D01*
X16527Y20067D01*
X16518Y20020D01*
X16511Y19996D01*
X16504Y19975D01*
Y19974D01*
X16502Y19971D01*
X16500Y19966D01*
X16497Y19957D01*
X16493Y19949D01*
X16487Y19938D01*
X16473Y19914D01*
X16457Y19888D01*
X16437Y19860D01*
X16412Y19834D01*
X16384Y19810D01*
X16383D01*
X16380Y19808D01*
X16376Y19805D01*
X16371Y19802D01*
X16362Y19798D01*
X16354Y19792D01*
X16343Y19787D01*
X16332Y19783D01*
X16305Y19772D01*
X16274Y19762D01*
X16239Y19756D01*
X16200Y19754D01*
X16189D01*
X16182Y19755D01*
X16172D01*
X16161Y19756D01*
X16135Y19762D01*
X16106Y19769D01*
X16075Y19780D01*
X16045Y19795D01*
X16029Y19805D01*
X16016Y19816D01*
X16014Y19817D01*
X16013Y19819D01*
X16009Y19823D01*
X16004Y19827D01*
X15999Y19834D01*
X15992Y19842D01*
X15978Y19862D01*
X15964Y19887D01*
X15950Y19917D01*
X15939Y19952D01*
X15931Y19992D01*
X16045Y20002D01*
Y20000D01*
X16046Y19998D01*
Y19995D01*
X16047Y19989D01*
X16052Y19974D01*
X16057Y19957D01*
X16064Y19938D01*
X16074Y19919D01*
X16085Y19901D01*
X16099Y19885D01*
X16100Y19884D01*
X16106Y19880D01*
X16115Y19874D01*
X16127Y19869D01*
X16142Y19862D01*
X16160Y19856D01*
X16181Y19852D01*
X16203Y19851D01*
X16213D01*
X16222Y19852D01*
X16235Y19853D01*
X16250Y19856D01*
X16265Y19860D01*
X16282Y19866D01*
X16297Y19874D01*
X16299Y19876D01*
X16304Y19878D01*
X16312Y19884D01*
X16321Y19892D01*
X16332Y19902D01*
X16343Y19913D01*
X16354Y19925D01*
X16365Y19941D01*
X16366Y19942D01*
X16369Y19949D01*
X16375Y19959D01*
X16380Y19971D01*
X16387Y19988D01*
X16394Y20007D01*
X16401Y20029D01*
X16408Y20054D01*
Y20056D01*
X16409Y20057D01*
Y20061D01*
X16411Y20067D01*
X16414Y20081D01*
X16418Y20099D01*
X16421Y20121D01*
X16423Y20145D01*
X16425Y20171D01*
X16426Y20199D01*
Y20200D01*
Y20204D01*
Y20211D01*
Y20222D01*
X16425Y20219D01*
X16419Y20213D01*
X16411Y20203D01*
X16401Y20189D01*
X16387Y20175D01*
X16371Y20160D01*
X16351Y20145D01*
X16329Y20131D01*
X16326Y20129D01*
X16318Y20125D01*
X16305Y20120D01*
X16290Y20114D01*
X16269Y20107D01*
X16247Y20102D01*
X16222Y20097D01*
X16196Y20096D01*
X16185D01*
X16176Y20097D01*
X16165Y20099D01*
X16154Y20100D01*
X16140Y20103D01*
X16127Y20107D01*
X16095Y20117D01*
X16078Y20124D01*
X16061Y20132D01*
X16043Y20142D01*
X16027Y20154D01*
X16010Y20167D01*
X15995Y20182D01*
X15993Y20183D01*
X15991Y20186D01*
X15988Y20190D01*
X15982Y20197D01*
X15975Y20207D01*
X15968Y20217D01*
X15961Y20229D01*
X15955Y20243D01*
X15946Y20258D01*
X15939Y20275D01*
X15932Y20294D01*
X15925Y20314D01*
X15920Y20336D01*
X15917Y20360D01*
X15914Y20383D01*
X15913Y20409D01*
Y20411D01*
Y20416D01*
Y20423D01*
X15914Y20433D01*
X15916Y20446D01*
X15917Y20461D01*
X15920Y20476D01*
X15924Y20494D01*
X15934Y20530D01*
X15941Y20550D01*
X15949Y20570D01*
X15959Y20590D01*
X15971Y20608D01*
X15984Y20627D01*
X15999Y20644D01*
X16000Y20645D01*
X16003Y20648D01*
X16007Y20652D01*
X16014Y20658D01*
X16023Y20665D01*
X16034Y20673D01*
X16045Y20680D01*
X16059Y20690D01*
X16072Y20698D01*
X16089Y20705D01*
X16127Y20720D01*
X16146Y20726D01*
X16168Y20730D01*
X16190Y20733D01*
X16214Y20734D01*
X16224D01*
X16231Y20733D01*
D02*
G37*
G36*
X19932Y22745D02*
X19944Y22744D01*
X19959Y22742D01*
X19975Y22741D01*
X19993Y22737D01*
X20030Y22728D01*
X20072Y22716D01*
X20093Y22708D01*
X20112Y22698D01*
X20131Y22685D01*
X20151Y22673D01*
X20152Y22672D01*
X20155Y22670D01*
X20161Y22666D01*
X20167Y22659D01*
X20174Y22652D01*
X20184Y22642D01*
X20194Y22631D01*
X20205Y22620D01*
X20216Y22606D01*
X20227Y22590D01*
X20240Y22573D01*
X20251Y22555D01*
X20260Y22534D01*
X20271Y22514D01*
X20280Y22491D01*
X20288Y22466D01*
X20163Y22437D01*
Y22439D01*
X20162Y22441D01*
X20159Y22447D01*
X20156Y22454D01*
X20154Y22462D01*
X20149Y22473D01*
X20138Y22495D01*
X20124Y22520D01*
X20108Y22545D01*
X20087Y22569D01*
X20065Y22590D01*
X20062Y22593D01*
X20054Y22598D01*
X20040Y22605D01*
X20022Y22615D01*
X19998Y22623D01*
X19972Y22631D01*
X19940Y22637D01*
X19905Y22638D01*
X19894D01*
X19887Y22637D01*
X19878D01*
X19867Y22636D01*
X19840Y22631D01*
X19811Y22626D01*
X19781Y22616D01*
X19749Y22602D01*
X19720Y22584D01*
X19718D01*
X19717Y22581D01*
X19707Y22575D01*
X19695Y22563D01*
X19679Y22547D01*
X19661Y22526D01*
X19645Y22502D01*
X19629Y22473D01*
X19616Y22441D01*
Y22440D01*
X19614Y22437D01*
X19613Y22433D01*
X19611Y22426D01*
X19609Y22418D01*
X19606Y22408D01*
X19602Y22385D01*
X19596Y22357D01*
X19591Y22326D01*
X19588Y22293D01*
X19586Y22257D01*
Y22256D01*
Y22251D01*
Y22244D01*
Y22236D01*
X19588Y22226D01*
Y22214D01*
X19589Y22200D01*
X19591Y22185D01*
X19595Y22152D01*
X19602Y22115D01*
X19610Y22079D01*
X19621Y22043D01*
Y22042D01*
X19622Y22039D01*
X19625Y22035D01*
X19628Y22028D01*
X19636Y22011D01*
X19649Y21992D01*
X19664Y21970D01*
X19683Y21946D01*
X19706Y21925D01*
X19732Y21906D01*
X19733D01*
X19736Y21905D01*
X19740Y21902D01*
X19746Y21899D01*
X19753Y21896D01*
X19761Y21892D01*
X19781Y21884D01*
X19806Y21876D01*
X19833Y21869D01*
X19864Y21863D01*
X19896Y21862D01*
X19905D01*
X19914Y21863D01*
X19923D01*
X19933Y21864D01*
X19958Y21870D01*
X19987Y21877D01*
X20016Y21888D01*
X20047Y21903D01*
X20062Y21912D01*
X20076Y21923D01*
X20077Y21924D01*
X20079Y21925D01*
X20083Y21930D01*
X20088Y21934D01*
X20094Y21941D01*
X20101Y21949D01*
X20109Y21957D01*
X20116Y21968D01*
X20124Y21981D01*
X20134Y21995D01*
X20143Y22009D01*
X20151Y22025D01*
X20158Y22043D01*
X20165Y22063D01*
X20172Y22084D01*
X20177Y22106D01*
X20305Y22074D01*
Y22072D01*
X20303Y22067D01*
X20301Y22059D01*
X20296Y22048D01*
X20292Y22035D01*
X20287Y22020D01*
X20280Y22003D01*
X20271Y21985D01*
X20252Y21946D01*
X20227Y21907D01*
X20212Y21888D01*
X20197Y21869D01*
X20180Y21852D01*
X20161Y21835D01*
X20159Y21834D01*
X20156Y21831D01*
X20149Y21828D01*
X20143Y21823D01*
X20131Y21816D01*
X20120Y21809D01*
X20105Y21802D01*
X20090Y21795D01*
X20072Y21787D01*
X20052Y21780D01*
X20032Y21773D01*
X20009Y21766D01*
X19986Y21760D01*
X19961Y21758D01*
X19934Y21755D01*
X19907Y21754D01*
X19892D01*
X19880Y21755D01*
X19868D01*
X19853Y21756D01*
X19836Y21759D01*
X19817Y21762D01*
X19776Y21769D01*
X19735Y21780D01*
X19693Y21795D01*
X19674Y21805D01*
X19654Y21816D01*
X19653Y21817D01*
X19650Y21819D01*
X19645Y21823D01*
X19639Y21828D01*
X19631Y21834D01*
X19621Y21842D01*
X19610Y21852D01*
X19599Y21863D01*
X19588Y21876D01*
X19575Y21888D01*
X19550Y21920D01*
X19527Y21957D01*
X19506Y21999D01*
Y22000D01*
X19503Y22005D01*
X19502Y22011D01*
X19498Y22020D01*
X19495Y22031D01*
X19491Y22045D01*
X19485Y22060D01*
X19481Y22077D01*
X19477Y22095D01*
X19471Y22115D01*
X19464Y22158D01*
X19459Y22207D01*
X19456Y22257D01*
Y22258D01*
Y22264D01*
Y22272D01*
X19457Y22282D01*
Y22296D01*
X19459Y22310D01*
X19460Y22328D01*
X19463Y22346D01*
X19470Y22386D01*
X19480Y22430D01*
X19493Y22475D01*
X19513Y22518D01*
X19514Y22519D01*
X19516Y22523D01*
X19518Y22529D01*
X19524Y22536D01*
X19530Y22545D01*
X19536Y22556D01*
X19555Y22581D01*
X19578Y22609D01*
X19606Y22637D01*
X19638Y22665D01*
X19675Y22688D01*
X19677Y22690D01*
X19681Y22691D01*
X19686Y22694D01*
X19693Y22698D01*
X19704Y22702D01*
X19715Y22706D01*
X19729Y22712D01*
X19744Y22717D01*
X19761Y22723D01*
X19779Y22728D01*
X19818Y22737D01*
X19862Y22744D01*
X19908Y22746D01*
X19922D01*
X19932Y22745D01*
D02*
G37*
G36*
X20746Y22733D02*
X20757Y22731D01*
X20769Y22730D01*
X20783Y22728D01*
X20797Y22724D01*
X20830Y22716D01*
X20864Y22704D01*
X20880Y22695D01*
X20897Y22685D01*
X20912Y22673D01*
X20927Y22660D01*
X20929Y22659D01*
X20930Y22658D01*
X20934Y22654D01*
X20940Y22648D01*
X20945Y22640D01*
X20952Y22631D01*
X20966Y22611D01*
X20980Y22584D01*
X20993Y22554D01*
X21002Y22519D01*
X21004Y22501D01*
X21005Y22482D01*
Y22480D01*
Y22479D01*
Y22471D01*
X21004Y22458D01*
X21001Y22443D01*
X20997Y22423D01*
X20990Y22404D01*
X20982Y22385D01*
X20969Y22365D01*
X20968Y22362D01*
X20962Y22357D01*
X20954Y22348D01*
X20943Y22337D01*
X20927Y22325D01*
X20909Y22312D01*
X20889Y22300D01*
X20864Y22289D01*
X20865D01*
X20868Y22287D01*
X20872Y22286D01*
X20878Y22283D01*
X20894Y22276D01*
X20914Y22267D01*
X20934Y22253D01*
X20957Y22238D01*
X20977Y22218D01*
X20997Y22196D01*
Y22195D01*
X20998Y22193D01*
X21004Y22185D01*
X21012Y22171D01*
X21020Y22153D01*
X21029Y22131D01*
X21037Y22104D01*
X21043Y22075D01*
X21044Y22043D01*
Y22042D01*
Y22038D01*
Y22031D01*
X21043Y22023D01*
X21041Y22013D01*
X21040Y22000D01*
X21037Y21986D01*
X21033Y21971D01*
X21023Y21939D01*
X21016Y21921D01*
X21007Y21905D01*
X20997Y21887D01*
X20986Y21870D01*
X20972Y21853D01*
X20957Y21837D01*
X20955Y21835D01*
X20952Y21833D01*
X20948Y21828D01*
X20941Y21824D01*
X20932Y21817D01*
X20922Y21810D01*
X20909Y21803D01*
X20896Y21795D01*
X20880Y21787D01*
X20862Y21780D01*
X20843Y21773D01*
X20823Y21766D01*
X20801Y21762D01*
X20778Y21758D01*
X20754Y21755D01*
X20728Y21754D01*
X20714D01*
X20704Y21755D01*
X20692Y21756D01*
X20678Y21758D01*
X20663Y21760D01*
X20646Y21765D01*
X20608Y21774D01*
X20589Y21781D01*
X20571Y21788D01*
X20552Y21798D01*
X20532Y21809D01*
X20514Y21821D01*
X20498Y21837D01*
X20496Y21838D01*
X20493Y21841D01*
X20489Y21845D01*
X20484Y21852D01*
X20478Y21860D01*
X20470Y21870D01*
X20463Y21881D01*
X20455Y21895D01*
X20446Y21909D01*
X20439Y21925D01*
X20425Y21960D01*
X20420Y21981D01*
X20416Y22002D01*
X20413Y22024D01*
X20412Y22046D01*
Y22048D01*
Y22050D01*
Y22056D01*
X20413Y22061D01*
Y22070D01*
X20414Y22079D01*
X20417Y22102D01*
X20423Y22127D01*
X20431Y22152D01*
X20443Y22178D01*
X20459Y22203D01*
Y22204D01*
X20462Y22206D01*
X20467Y22213D01*
X20478Y22224D01*
X20493Y22238D01*
X20513Y22251D01*
X20536Y22267D01*
X20563Y22279D01*
X20595Y22289D01*
X20593D01*
X20592Y22290D01*
X20588Y22292D01*
X20582Y22294D01*
X20570Y22300D01*
X20553Y22308D01*
X20535Y22319D01*
X20517Y22333D01*
X20500Y22348D01*
X20485Y22365D01*
X20484Y22368D01*
X20480Y22373D01*
X20474Y22385D01*
X20468Y22398D01*
X20462Y22416D01*
X20456Y22437D01*
X20452Y22461D01*
X20450Y22486D01*
Y22487D01*
Y22490D01*
Y22495D01*
X20452Y22504D01*
X20453Y22512D01*
X20455Y22523D01*
X20460Y22547D01*
X20468Y22575D01*
X20482Y22604D01*
X20491Y22619D01*
X20500Y22634D01*
X20513Y22648D01*
X20525Y22662D01*
X20527Y22663D01*
X20529Y22665D01*
X20534Y22669D01*
X20539Y22673D01*
X20546Y22679D01*
X20556Y22684D01*
X20567Y22691D01*
X20578Y22698D01*
X20592Y22705D01*
X20607Y22712D01*
X20624Y22717D01*
X20642Y22723D01*
X20681Y22731D01*
X20703Y22733D01*
X20725Y22734D01*
X20737D01*
X20746Y22733D01*
D02*
G37*
G36*
X17932Y22745D02*
X17945Y22744D01*
X17960Y22742D01*
X17975Y22741D01*
X17993Y22737D01*
X18031Y22728D01*
X18072Y22716D01*
X18093Y22708D01*
X18113Y22698D01*
X18132Y22685D01*
X18152Y22673D01*
X18153Y22672D01*
X18156Y22670D01*
X18161Y22666D01*
X18168Y22659D01*
X18175Y22652D01*
X18185Y22642D01*
X18195Y22631D01*
X18206Y22620D01*
X18217Y22606D01*
X18228Y22590D01*
X18240Y22573D01*
X18251Y22555D01*
X18261Y22534D01*
X18272Y22514D01*
X18281Y22491D01*
X18289Y22466D01*
X18164Y22437D01*
Y22439D01*
X18163Y22441D01*
X18160Y22447D01*
X18157Y22454D01*
X18154Y22462D01*
X18150Y22473D01*
X18139Y22495D01*
X18125Y22520D01*
X18109Y22545D01*
X18088Y22569D01*
X18066Y22590D01*
X18063Y22593D01*
X18054Y22598D01*
X18041Y22605D01*
X18023Y22615D01*
X17999Y22623D01*
X17973Y22631D01*
X17941Y22637D01*
X17906Y22638D01*
X17895D01*
X17888Y22637D01*
X17878D01*
X17867Y22636D01*
X17841Y22631D01*
X17812Y22626D01*
X17781Y22616D01*
X17749Y22602D01*
X17720Y22584D01*
X17719D01*
X17717Y22581D01*
X17708Y22575D01*
X17695Y22563D01*
X17680Y22547D01*
X17662Y22526D01*
X17645Y22502D01*
X17630Y22473D01*
X17616Y22441D01*
Y22440D01*
X17615Y22437D01*
X17613Y22433D01*
X17612Y22426D01*
X17609Y22418D01*
X17607Y22408D01*
X17602Y22385D01*
X17597Y22357D01*
X17591Y22326D01*
X17588Y22293D01*
X17587Y22257D01*
Y22256D01*
Y22251D01*
Y22244D01*
Y22236D01*
X17588Y22226D01*
Y22214D01*
X17590Y22200D01*
X17591Y22185D01*
X17595Y22152D01*
X17602Y22115D01*
X17611Y22079D01*
X17622Y22043D01*
Y22042D01*
X17623Y22039D01*
X17626Y22035D01*
X17629Y22028D01*
X17637Y22011D01*
X17649Y21992D01*
X17665Y21970D01*
X17684Y21946D01*
X17706Y21925D01*
X17733Y21906D01*
X17734D01*
X17737Y21905D01*
X17741Y21902D01*
X17747Y21899D01*
X17754Y21896D01*
X17762Y21892D01*
X17781Y21884D01*
X17806Y21876D01*
X17834Y21869D01*
X17864Y21863D01*
X17896Y21862D01*
X17906D01*
X17914Y21863D01*
X17924D01*
X17934Y21864D01*
X17959Y21870D01*
X17988Y21877D01*
X18017Y21888D01*
X18048Y21903D01*
X18063Y21912D01*
X18077Y21923D01*
X18078Y21924D01*
X18079Y21925D01*
X18084Y21930D01*
X18089Y21934D01*
X18095Y21941D01*
X18102Y21949D01*
X18110Y21957D01*
X18117Y21968D01*
X18125Y21981D01*
X18135Y21995D01*
X18143Y22009D01*
X18152Y22025D01*
X18158Y22043D01*
X18165Y22063D01*
X18172Y22084D01*
X18178Y22106D01*
X18305Y22074D01*
Y22072D01*
X18304Y22067D01*
X18301Y22059D01*
X18297Y22048D01*
X18293Y22035D01*
X18287Y22020D01*
X18281Y22003D01*
X18272Y21985D01*
X18253Y21946D01*
X18228Y21907D01*
X18213Y21888D01*
X18197Y21869D01*
X18181Y21852D01*
X18161Y21835D01*
X18160Y21834D01*
X18157Y21831D01*
X18150Y21828D01*
X18143Y21823D01*
X18132Y21816D01*
X18121Y21809D01*
X18106Y21802D01*
X18091Y21795D01*
X18072Y21787D01*
X18053Y21780D01*
X18032Y21773D01*
X18010Y21766D01*
X17986Y21760D01*
X17962Y21758D01*
X17935Y21755D01*
X17907Y21754D01*
X17892D01*
X17881Y21755D01*
X17869D01*
X17853Y21756D01*
X17837Y21759D01*
X17817Y21762D01*
X17777Y21769D01*
X17735Y21780D01*
X17694Y21795D01*
X17674Y21805D01*
X17655Y21816D01*
X17654Y21817D01*
X17651Y21819D01*
X17645Y21823D01*
X17640Y21828D01*
X17631Y21834D01*
X17622Y21842D01*
X17611Y21852D01*
X17600Y21863D01*
X17588Y21876D01*
X17576Y21888D01*
X17551Y21920D01*
X17527Y21957D01*
X17507Y21999D01*
Y22000D01*
X17504Y22005D01*
X17502Y22011D01*
X17498Y22020D01*
X17496Y22031D01*
X17491Y22045D01*
X17486Y22060D01*
X17482Y22077D01*
X17478Y22095D01*
X17472Y22115D01*
X17465Y22158D01*
X17459Y22207D01*
X17457Y22257D01*
Y22258D01*
Y22264D01*
Y22272D01*
X17458Y22282D01*
Y22296D01*
X17459Y22310D01*
X17461Y22328D01*
X17464Y22346D01*
X17471Y22386D01*
X17480Y22430D01*
X17494Y22475D01*
X17514Y22518D01*
X17515Y22519D01*
X17516Y22523D01*
X17519Y22529D01*
X17525Y22536D01*
X17530Y22545D01*
X17537Y22556D01*
X17555Y22581D01*
X17579Y22609D01*
X17607Y22637D01*
X17638Y22665D01*
X17676Y22688D01*
X17677Y22690D01*
X17681Y22691D01*
X17687Y22694D01*
X17694Y22698D01*
X17705Y22702D01*
X17716Y22706D01*
X17730Y22712D01*
X17745Y22717D01*
X17762Y22723D01*
X17780Y22728D01*
X17819Y22737D01*
X17863Y22744D01*
X17909Y22746D01*
X17923D01*
X17932Y22745D01*
D02*
G37*
G36*
X19043Y22624D02*
X19042Y22623D01*
X19039Y22620D01*
X19034Y22615D01*
X19028Y22606D01*
X19020Y22597D01*
X19009Y22586D01*
X18998Y22572D01*
X18985Y22555D01*
X18973Y22538D01*
X18957Y22519D01*
X18942Y22497D01*
X18927Y22475D01*
X18910Y22450D01*
X18893Y22423D01*
X18877Y22394D01*
X18860Y22365D01*
X18859Y22364D01*
X18856Y22358D01*
X18852Y22350D01*
X18845Y22337D01*
X18838Y22322D01*
X18830Y22305D01*
X18820Y22286D01*
X18810Y22264D01*
X18799Y22239D01*
X18787Y22214D01*
X18776Y22186D01*
X18765Y22157D01*
X18742Y22097D01*
X18722Y22034D01*
Y22032D01*
X18720Y22028D01*
X18719Y22021D01*
X18716Y22013D01*
X18713Y22002D01*
X18710Y21988D01*
X18706Y21973D01*
X18704Y21956D01*
X18699Y21937D01*
X18695Y21916D01*
X18688Y21871D01*
X18681Y21823D01*
X18677Y21770D01*
X18556D01*
Y21772D01*
Y21776D01*
Y21781D01*
X18558Y21790D01*
Y21801D01*
X18559Y21815D01*
X18561Y21830D01*
X18562Y21846D01*
X18565Y21866D01*
X18568Y21885D01*
X18572Y21909D01*
X18576Y21932D01*
X18580Y21957D01*
X18586Y21985D01*
X18599Y22042D01*
Y22043D01*
X18601Y22049D01*
X18604Y22057D01*
X18608Y22070D01*
X18612Y22084D01*
X18618Y22100D01*
X18623Y22120D01*
X18631Y22140D01*
X18640Y22164D01*
X18648Y22188D01*
X18669Y22240D01*
X18694Y22296D01*
X18722Y22351D01*
X18723Y22353D01*
X18726Y22358D01*
X18730Y22365D01*
X18735Y22376D01*
X18742Y22389D01*
X18752Y22404D01*
X18762Y22421D01*
X18773Y22439D01*
X18799Y22479D01*
X18827Y22520D01*
X18859Y22563D01*
X18892Y22604D01*
X18422D01*
Y22717D01*
X19043D01*
Y22624D01*
D02*
G37*
G36*
X28523Y23483D02*
X28533D01*
X28544Y23481D01*
X28570Y23476D01*
X28599Y23469D01*
X28630Y23458D01*
X28660Y23441D01*
X28675Y23431D01*
X28689Y23420D01*
X28691Y23419D01*
X28692Y23417D01*
X28696Y23413D01*
X28700Y23409D01*
X28707Y23402D01*
X28713Y23394D01*
X28728Y23374D01*
X28743Y23349D01*
X28757Y23319D01*
X28770Y23284D01*
X28778Y23245D01*
X28660Y23236D01*
Y23237D01*
X28659Y23239D01*
X28657Y23247D01*
X28653Y23259D01*
X28648Y23275D01*
X28642Y23291D01*
X28634Y23308D01*
X28624Y23323D01*
X28614Y23336D01*
X28612Y23338D01*
X28606Y23344D01*
X28596Y23352D01*
X28582Y23362D01*
X28564Y23370D01*
X28545Y23379D01*
X28521Y23384D01*
X28496Y23387D01*
X28487D01*
X28476Y23386D01*
X28463Y23383D01*
X28447Y23379D01*
X28430Y23373D01*
X28413Y23366D01*
X28397Y23355D01*
X28394Y23354D01*
X28387Y23348D01*
X28377Y23338D01*
X28365Y23325D01*
X28351Y23308D01*
X28336Y23288D01*
X28322Y23264D01*
X28308Y23236D01*
Y23234D01*
X28306Y23232D01*
X28305Y23227D01*
X28302Y23222D01*
X28301Y23214D01*
X28298Y23204D01*
X28295Y23193D01*
X28293Y23179D01*
X28288Y23164D01*
X28286Y23147D01*
X28283Y23129D01*
X28282Y23110D01*
X28279Y23087D01*
X28277Y23065D01*
X28276Y23040D01*
Y23015D01*
X28277Y23017D01*
X28283Y23025D01*
X28293Y23036D01*
X28305Y23050D01*
X28319Y23067D01*
X28337Y23082D01*
X28356Y23097D01*
X28379Y23111D01*
X28380D01*
X28381Y23112D01*
X28390Y23116D01*
X28402Y23121D01*
X28419Y23128D01*
X28438Y23133D01*
X28460Y23137D01*
X28484Y23141D01*
X28509Y23143D01*
X28520D01*
X28528Y23141D01*
X28539Y23140D01*
X28551Y23139D01*
X28564Y23136D01*
X28578Y23132D01*
X28610Y23122D01*
X28627Y23115D01*
X28643Y23105D01*
X28660Y23096D01*
X28678Y23085D01*
X28695Y23071D01*
X28710Y23055D01*
X28711Y23054D01*
X28714Y23051D01*
X28718Y23047D01*
X28723Y23040D01*
X28729Y23031D01*
X28736Y23021D01*
X28743Y23008D01*
X28752Y22994D01*
X28760Y22979D01*
X28767Y22963D01*
X28774Y22943D01*
X28781Y22924D01*
X28785Y22903D01*
X28789Y22879D01*
X28792Y22856D01*
X28793Y22831D01*
Y22829D01*
Y22827D01*
Y22822D01*
Y22816D01*
X28792Y22807D01*
Y22799D01*
X28788Y22777D01*
X28784Y22750D01*
X28777Y22723D01*
X28767Y22692D01*
X28753Y22663D01*
Y22662D01*
X28752Y22660D01*
X28749Y22656D01*
X28746Y22651D01*
X28738Y22637D01*
X28725Y22619D01*
X28710Y22599D01*
X28692Y22580D01*
X28670Y22560D01*
X28646Y22544D01*
X28645D01*
X28643Y22542D01*
X28639Y22540D01*
X28634Y22538D01*
X28620Y22531D01*
X28602Y22524D01*
X28578Y22516D01*
X28552Y22510D01*
X28523Y22505D01*
X28491Y22504D01*
X28484D01*
X28477Y22505D01*
X28466D01*
X28454Y22506D01*
X28440Y22509D01*
X28423Y22513D01*
X28406Y22517D01*
X28387Y22523D01*
X28368Y22530D01*
X28348Y22538D01*
X28327Y22549D01*
X28308Y22562D01*
X28288Y22576D01*
X28269Y22592D01*
X28251Y22612D01*
X28250Y22613D01*
X28247Y22617D01*
X28243Y22623D01*
X28237Y22632D01*
X28229Y22645D01*
X28222Y22659D01*
X28214Y22677D01*
X28205Y22696D01*
X28196Y22720D01*
X28187Y22746D01*
X28180Y22775D01*
X28173Y22807D01*
X28166Y22843D01*
X28162Y22882D01*
X28159Y22924D01*
X28158Y22968D01*
Y22969D01*
Y22971D01*
Y22975D01*
Y22981D01*
X28159Y22994D01*
Y23014D01*
X28161Y23036D01*
X28164Y23062D01*
X28166Y23092D01*
X28171Y23123D01*
X28176Y23155D01*
X28183Y23190D01*
X28191Y23223D01*
X28201Y23257D01*
X28214Y23288D01*
X28227Y23319D01*
X28243Y23348D01*
X28261Y23373D01*
X28262Y23374D01*
X28265Y23377D01*
X28270Y23383D01*
X28277Y23391D01*
X28286Y23399D01*
X28297Y23408D01*
X28311Y23419D01*
X28325Y23429D01*
X28341Y23438D01*
X28359Y23449D01*
X28380Y23458D01*
X28401Y23467D01*
X28424Y23474D01*
X28449Y23480D01*
X28476Y23483D01*
X28503Y23484D01*
X28515D01*
X28523Y23483D01*
D02*
G37*
G36*
X27682Y23495D02*
X27695Y23494D01*
X27710Y23492D01*
X27725Y23491D01*
X27743Y23487D01*
X27781Y23478D01*
X27822Y23466D01*
X27843Y23458D01*
X27863Y23448D01*
X27882Y23435D01*
X27902Y23423D01*
X27903Y23422D01*
X27906Y23420D01*
X27911Y23416D01*
X27918Y23409D01*
X27925Y23402D01*
X27935Y23392D01*
X27945Y23381D01*
X27956Y23370D01*
X27967Y23356D01*
X27978Y23340D01*
X27990Y23323D01*
X28001Y23305D01*
X28011Y23284D01*
X28022Y23264D01*
X28031Y23241D01*
X28039Y23216D01*
X27914Y23187D01*
Y23189D01*
X27913Y23191D01*
X27910Y23197D01*
X27907Y23204D01*
X27904Y23212D01*
X27900Y23223D01*
X27889Y23245D01*
X27875Y23270D01*
X27859Y23295D01*
X27838Y23319D01*
X27816Y23340D01*
X27813Y23343D01*
X27804Y23348D01*
X27791Y23355D01*
X27773Y23365D01*
X27749Y23373D01*
X27723Y23381D01*
X27691Y23387D01*
X27656Y23388D01*
X27645D01*
X27638Y23387D01*
X27628D01*
X27617Y23386D01*
X27591Y23381D01*
X27562Y23376D01*
X27531Y23366D01*
X27499Y23352D01*
X27470Y23334D01*
X27469D01*
X27467Y23331D01*
X27458Y23325D01*
X27445Y23313D01*
X27430Y23297D01*
X27412Y23276D01*
X27395Y23252D01*
X27380Y23223D01*
X27366Y23191D01*
Y23190D01*
X27365Y23187D01*
X27363Y23183D01*
X27362Y23176D01*
X27359Y23168D01*
X27357Y23158D01*
X27352Y23135D01*
X27347Y23107D01*
X27341Y23076D01*
X27338Y23043D01*
X27337Y23007D01*
Y23006D01*
Y23001D01*
Y22994D01*
Y22986D01*
X27338Y22976D01*
Y22964D01*
X27340Y22950D01*
X27341Y22935D01*
X27345Y22902D01*
X27352Y22865D01*
X27361Y22829D01*
X27372Y22793D01*
Y22792D01*
X27373Y22789D01*
X27376Y22785D01*
X27379Y22778D01*
X27387Y22761D01*
X27399Y22742D01*
X27415Y22720D01*
X27434Y22696D01*
X27456Y22675D01*
X27483Y22656D01*
X27484D01*
X27487Y22655D01*
X27491Y22652D01*
X27497Y22649D01*
X27504Y22646D01*
X27512Y22642D01*
X27531Y22634D01*
X27556Y22626D01*
X27584Y22619D01*
X27614Y22613D01*
X27646Y22612D01*
X27656D01*
X27664Y22613D01*
X27674D01*
X27684Y22614D01*
X27709Y22620D01*
X27738Y22627D01*
X27767Y22638D01*
X27798Y22653D01*
X27813Y22662D01*
X27827Y22673D01*
X27828Y22674D01*
X27829Y22675D01*
X27834Y22680D01*
X27839Y22684D01*
X27845Y22691D01*
X27852Y22699D01*
X27860Y22707D01*
X27867Y22718D01*
X27875Y22731D01*
X27885Y22745D01*
X27893Y22759D01*
X27902Y22775D01*
X27908Y22793D01*
X27915Y22813D01*
X27922Y22834D01*
X27928Y22856D01*
X28055Y22824D01*
Y22822D01*
X28054Y22817D01*
X28051Y22809D01*
X28047Y22798D01*
X28043Y22785D01*
X28037Y22770D01*
X28031Y22753D01*
X28022Y22735D01*
X28003Y22696D01*
X27978Y22657D01*
X27963Y22638D01*
X27947Y22619D01*
X27931Y22602D01*
X27911Y22585D01*
X27910Y22584D01*
X27907Y22581D01*
X27900Y22578D01*
X27893Y22573D01*
X27882Y22566D01*
X27871Y22559D01*
X27856Y22552D01*
X27841Y22545D01*
X27822Y22537D01*
X27803Y22530D01*
X27782Y22523D01*
X27760Y22516D01*
X27736Y22510D01*
X27712Y22508D01*
X27685Y22505D01*
X27657Y22504D01*
X27642D01*
X27631Y22505D01*
X27619D01*
X27603Y22506D01*
X27587Y22509D01*
X27567Y22512D01*
X27527Y22519D01*
X27485Y22530D01*
X27444Y22545D01*
X27424Y22555D01*
X27405Y22566D01*
X27404Y22567D01*
X27401Y22569D01*
X27395Y22573D01*
X27390Y22578D01*
X27381Y22584D01*
X27372Y22592D01*
X27361Y22602D01*
X27350Y22613D01*
X27338Y22626D01*
X27326Y22638D01*
X27301Y22670D01*
X27277Y22707D01*
X27257Y22749D01*
Y22750D01*
X27254Y22755D01*
X27253Y22761D01*
X27248Y22770D01*
X27246Y22781D01*
X27241Y22795D01*
X27236Y22810D01*
X27232Y22827D01*
X27228Y22845D01*
X27222Y22865D01*
X27215Y22908D01*
X27209Y22957D01*
X27207Y23007D01*
Y23008D01*
Y23014D01*
Y23022D01*
X27208Y23032D01*
Y23046D01*
X27209Y23060D01*
X27211Y23078D01*
X27214Y23096D01*
X27221Y23136D01*
X27230Y23180D01*
X27244Y23225D01*
X27264Y23268D01*
X27265Y23269D01*
X27266Y23273D01*
X27269Y23279D01*
X27275Y23286D01*
X27280Y23295D01*
X27287Y23306D01*
X27305Y23331D01*
X27329Y23359D01*
X27357Y23387D01*
X27388Y23415D01*
X27426Y23438D01*
X27427Y23440D01*
X27431Y23441D01*
X27437Y23444D01*
X27444Y23448D01*
X27455Y23452D01*
X27466Y23456D01*
X27480Y23462D01*
X27495Y23467D01*
X27512Y23473D01*
X27530Y23478D01*
X27569Y23487D01*
X27613Y23494D01*
X27659Y23496D01*
X27673D01*
X27682Y23495D01*
D02*
G37*
G36*
X33092Y22102D02*
X33105Y22101D01*
X33120Y22100D01*
X33135Y22098D01*
X33153Y22094D01*
X33191Y22086D01*
X33232Y22073D01*
X33253Y22065D01*
X33272Y22055D01*
X33292Y22043D01*
X33311Y22030D01*
X33313Y22029D01*
X33315Y22027D01*
X33321Y22023D01*
X33328Y22016D01*
X33335Y22009D01*
X33345Y22000D01*
X33354Y21989D01*
X33365Y21978D01*
X33376Y21964D01*
X33388Y21947D01*
X33400Y21930D01*
X33411Y21912D01*
X33421Y21892D01*
X33432Y21871D01*
X33440Y21849D01*
X33449Y21824D01*
X33324Y21795D01*
Y21796D01*
X33322Y21799D01*
X33320Y21804D01*
X33317Y21811D01*
X33314Y21819D01*
X33310Y21831D01*
X33299Y21853D01*
X33285Y21878D01*
X33268Y21903D01*
X33248Y21926D01*
X33225Y21947D01*
X33223Y21950D01*
X33214Y21955D01*
X33200Y21962D01*
X33182Y21972D01*
X33159Y21980D01*
X33132Y21989D01*
X33101Y21994D01*
X33066Y21996D01*
X33055D01*
X33048Y21994D01*
X33038D01*
X33027Y21993D01*
X33001Y21989D01*
X32972Y21983D01*
X32941Y21973D01*
X32909Y21960D01*
X32880Y21942D01*
X32879D01*
X32877Y21939D01*
X32868Y21932D01*
X32855Y21921D01*
X32840Y21904D01*
X32822Y21883D01*
X32805Y21860D01*
X32790Y21831D01*
X32776Y21799D01*
Y21797D01*
X32775Y21795D01*
X32773Y21790D01*
X32772Y21783D01*
X32769Y21775D01*
X32766Y21765D01*
X32762Y21742D01*
X32757Y21714D01*
X32751Y21684D01*
X32748Y21650D01*
X32747Y21614D01*
Y21613D01*
Y21609D01*
Y21602D01*
Y21593D01*
X32748Y21584D01*
Y21571D01*
X32750Y21557D01*
X32751Y21542D01*
X32755Y21509D01*
X32762Y21473D01*
X32770Y21437D01*
X32782Y21401D01*
Y21399D01*
X32783Y21396D01*
X32786Y21392D01*
X32788Y21385D01*
X32797Y21369D01*
X32809Y21349D01*
X32825Y21327D01*
X32844Y21304D01*
X32866Y21283D01*
X32892Y21263D01*
X32894D01*
X32897Y21262D01*
X32901Y21259D01*
X32906Y21256D01*
X32913Y21254D01*
X32922Y21249D01*
X32941Y21241D01*
X32966Y21233D01*
X32994Y21226D01*
X33024Y21220D01*
X33056Y21219D01*
X33066D01*
X33074Y21220D01*
X33084D01*
X33094Y21222D01*
X33119Y21227D01*
X33148Y21234D01*
X33177Y21245D01*
X33207Y21261D01*
X33223Y21269D01*
X33236Y21280D01*
X33238Y21281D01*
X33239Y21283D01*
X33243Y21287D01*
X33249Y21291D01*
X33254Y21298D01*
X33261Y21306D01*
X33270Y21315D01*
X33277Y21326D01*
X33285Y21338D01*
X33295Y21352D01*
X33303Y21366D01*
X33311Y21383D01*
X33318Y21401D01*
X33325Y21420D01*
X33332Y21441D01*
X33338Y21463D01*
X33465Y21431D01*
Y21430D01*
X33464Y21424D01*
X33461Y21416D01*
X33457Y21405D01*
X33453Y21392D01*
X33447Y21377D01*
X33440Y21360D01*
X33432Y21342D01*
X33413Y21304D01*
X33388Y21265D01*
X33372Y21245D01*
X33357Y21226D01*
X33340Y21209D01*
X33321Y21193D01*
X33320Y21191D01*
X33317Y21188D01*
X33310Y21186D01*
X33303Y21180D01*
X33292Y21173D01*
X33281Y21166D01*
X33266Y21159D01*
X33250Y21152D01*
X33232Y21144D01*
X33213Y21137D01*
X33192Y21130D01*
X33170Y21123D01*
X33146Y21118D01*
X33121Y21115D01*
X33095Y21112D01*
X33067Y21111D01*
X33052D01*
X33041Y21112D01*
X33028D01*
X33013Y21114D01*
X32996Y21116D01*
X32977Y21119D01*
X32937Y21126D01*
X32895Y21137D01*
X32854Y21152D01*
X32834Y21162D01*
X32815Y21173D01*
X32813Y21175D01*
X32811Y21176D01*
X32805Y21180D01*
X32800Y21186D01*
X32791Y21191D01*
X32782Y21200D01*
X32770Y21209D01*
X32759Y21220D01*
X32748Y21233D01*
X32736Y21245D01*
X32711Y21277D01*
X32687Y21315D01*
X32666Y21356D01*
Y21358D01*
X32664Y21362D01*
X32662Y21369D01*
X32658Y21377D01*
X32655Y21388D01*
X32651Y21402D01*
X32646Y21417D01*
X32641Y21434D01*
X32637Y21452D01*
X32632Y21473D01*
X32625Y21516D01*
X32619Y21564D01*
X32617Y21614D01*
Y21616D01*
Y21621D01*
Y21629D01*
X32618Y21639D01*
Y21653D01*
X32619Y21667D01*
X32621Y21685D01*
X32623Y21703D01*
X32630Y21743D01*
X32640Y21788D01*
X32654Y21832D01*
X32673Y21875D01*
X32675Y21876D01*
X32676Y21880D01*
X32679Y21886D01*
X32684Y21893D01*
X32690Y21903D01*
X32697Y21914D01*
X32715Y21939D01*
X32739Y21966D01*
X32766Y21994D01*
X32798Y22022D01*
X32836Y22046D01*
X32837Y22047D01*
X32841Y22048D01*
X32847Y22051D01*
X32854Y22055D01*
X32865Y22059D01*
X32876Y22064D01*
X32890Y22069D01*
X32905Y22075D01*
X32922Y22080D01*
X32940Y22086D01*
X32978Y22094D01*
X33023Y22101D01*
X33069Y22104D01*
X33082D01*
X33092Y22102D01*
D02*
G37*
G36*
X34164Y21962D02*
X33780D01*
X33729Y21703D01*
X33730Y21704D01*
X33733Y21706D01*
X33737Y21709D01*
X33744Y21713D01*
X33752Y21717D01*
X33762Y21722D01*
X33784Y21733D01*
X33812Y21745D01*
X33842Y21754D01*
X33876Y21761D01*
X33892Y21764D01*
X33923D01*
X33931Y21763D01*
X33942Y21761D01*
X33955Y21760D01*
X33969Y21757D01*
X33984Y21753D01*
X34017Y21743D01*
X34035Y21736D01*
X34053Y21727D01*
X34071Y21717D01*
X34089Y21706D01*
X34106Y21692D01*
X34123Y21677D01*
X34124Y21675D01*
X34127Y21672D01*
X34131Y21668D01*
X34136Y21661D01*
X34143Y21652D01*
X34150Y21642D01*
X34159Y21629D01*
X34167Y21616D01*
X34174Y21600D01*
X34182Y21584D01*
X34189Y21564D01*
X34196Y21545D01*
X34202Y21524D01*
X34206Y21500D01*
X34209Y21477D01*
X34210Y21452D01*
Y21451D01*
Y21446D01*
Y21439D01*
X34209Y21430D01*
X34207Y21419D01*
X34206Y21406D01*
X34203Y21391D01*
X34200Y21376D01*
X34192Y21340D01*
X34178Y21302D01*
X34170Y21283D01*
X34159Y21265D01*
X34148Y21245D01*
X34134Y21227D01*
X34132Y21226D01*
X34130Y21222D01*
X34124Y21216D01*
X34117Y21209D01*
X34107Y21201D01*
X34096Y21190D01*
X34082Y21180D01*
X34067Y21169D01*
X34050Y21158D01*
X34031Y21148D01*
X34010Y21139D01*
X33988Y21129D01*
X33965Y21122D01*
X33938Y21116D01*
X33910Y21112D01*
X33881Y21111D01*
X33869D01*
X33859Y21112D01*
X33848Y21114D01*
X33836Y21115D01*
X33820Y21116D01*
X33805Y21121D01*
X33770Y21129D01*
X33736Y21141D01*
X33718Y21150D01*
X33700Y21159D01*
X33683Y21170D01*
X33666Y21183D01*
X33665Y21184D01*
X33662Y21186D01*
X33659Y21191D01*
X33654Y21197D01*
X33647Y21204D01*
X33640Y21212D01*
X33632Y21223D01*
X33625Y21236D01*
X33616Y21248D01*
X33608Y21263D01*
X33593Y21297D01*
X33580Y21335D01*
X33576Y21356D01*
X33573Y21378D01*
X33697Y21388D01*
Y21387D01*
Y21384D01*
X33698Y21380D01*
X33700Y21373D01*
X33704Y21358D01*
X33709Y21337D01*
X33718Y21316D01*
X33729Y21292D01*
X33743Y21272D01*
X33759Y21252D01*
X33762Y21251D01*
X33768Y21245D01*
X33779Y21238D01*
X33794Y21230D01*
X33811Y21222D01*
X33831Y21215D01*
X33855Y21209D01*
X33881Y21208D01*
X33890D01*
X33895Y21209D01*
X33912Y21211D01*
X33931Y21216D01*
X33955Y21223D01*
X33978Y21234D01*
X34003Y21251D01*
X34014Y21261D01*
X34026Y21272D01*
X34027Y21273D01*
X34028Y21274D01*
X34031Y21279D01*
X34035Y21283D01*
X34045Y21298D01*
X34056Y21317D01*
X34066Y21341D01*
X34075Y21370D01*
X34082Y21405D01*
X34085Y21423D01*
Y21442D01*
Y21444D01*
Y21446D01*
Y21452D01*
X34084Y21459D01*
Y21467D01*
X34082Y21477D01*
X34078Y21499D01*
X34071Y21525D01*
X34062Y21552D01*
X34048Y21577D01*
X34028Y21600D01*
Y21602D01*
X34026Y21603D01*
X34019Y21610D01*
X34006Y21620D01*
X33989Y21631D01*
X33967Y21641D01*
X33942Y21650D01*
X33913Y21657D01*
X33897Y21660D01*
X33870D01*
X33859Y21659D01*
X33845Y21657D01*
X33829Y21653D01*
X33812Y21649D01*
X33794Y21642D01*
X33776Y21634D01*
X33775Y21632D01*
X33769Y21629D01*
X33761Y21623D01*
X33750Y21616D01*
X33738Y21606D01*
X33727Y21593D01*
X33715Y21581D01*
X33705Y21566D01*
X33594Y21581D01*
X33687Y22075D01*
X34164D01*
Y21962D01*
D02*
G37*
G36*
X13184Y14745D02*
X13197Y14744D01*
X13212Y14742D01*
X13227Y14741D01*
X13246Y14737D01*
X13283Y14728D01*
X13325Y14716D01*
X13345Y14708D01*
X13365Y14698D01*
X13384Y14685D01*
X13404Y14673D01*
X13405Y14672D01*
X13408Y14670D01*
X13413Y14666D01*
X13420Y14659D01*
X13427Y14652D01*
X13437Y14642D01*
X13447Y14631D01*
X13458Y14620D01*
X13469Y14606D01*
X13480Y14590D01*
X13492Y14573D01*
X13503Y14555D01*
X13513Y14534D01*
X13524Y14514D01*
X13533Y14491D01*
X13541Y14466D01*
X13416Y14437D01*
Y14439D01*
X13415Y14441D01*
X13412Y14447D01*
X13409Y14454D01*
X13406Y14462D01*
X13402Y14473D01*
X13391Y14495D01*
X13377Y14520D01*
X13361Y14545D01*
X13340Y14569D01*
X13318Y14590D01*
X13315Y14593D01*
X13307Y14598D01*
X13293Y14605D01*
X13275Y14615D01*
X13251Y14623D01*
X13225Y14631D01*
X13193Y14637D01*
X13158Y14638D01*
X13147D01*
X13140Y14637D01*
X13130D01*
X13119Y14636D01*
X13093Y14631D01*
X13064Y14626D01*
X13033Y14616D01*
X13001Y14602D01*
X12972Y14584D01*
X12971D01*
X12970Y14581D01*
X12960Y14575D01*
X12947Y14563D01*
X12932Y14547D01*
X12914Y14526D01*
X12897Y14502D01*
X12882Y14473D01*
X12868Y14441D01*
Y14440D01*
X12867Y14437D01*
X12866Y14433D01*
X12864Y14426D01*
X12861Y14418D01*
X12859Y14408D01*
X12854Y14385D01*
X12849Y14357D01*
X12843Y14326D01*
X12841Y14293D01*
X12839Y14257D01*
Y14256D01*
Y14251D01*
Y14244D01*
Y14236D01*
X12841Y14226D01*
Y14214D01*
X12842Y14200D01*
X12843Y14185D01*
X12847Y14152D01*
X12854Y14115D01*
X12863Y14079D01*
X12874Y14043D01*
Y14042D01*
X12875Y14039D01*
X12878Y14035D01*
X12881Y14028D01*
X12889Y14011D01*
X12902Y13992D01*
X12917Y13970D01*
X12936Y13946D01*
X12958Y13925D01*
X12985Y13906D01*
X12986D01*
X12989Y13905D01*
X12993Y13902D01*
X12999Y13899D01*
X13006Y13896D01*
X13014Y13892D01*
X13033Y13884D01*
X13058Y13876D01*
X13086Y13869D01*
X13117Y13863D01*
X13148Y13862D01*
X13158D01*
X13166Y13863D01*
X13176D01*
X13186Y13864D01*
X13211Y13870D01*
X13240Y13877D01*
X13269Y13888D01*
X13300Y13903D01*
X13315Y13912D01*
X13329Y13923D01*
X13330Y13924D01*
X13332Y13925D01*
X13336Y13930D01*
X13341Y13934D01*
X13347Y13941D01*
X13354Y13949D01*
X13362Y13957D01*
X13369Y13968D01*
X13377Y13981D01*
X13387Y13995D01*
X13395Y14009D01*
X13404Y14025D01*
X13411Y14043D01*
X13417Y14063D01*
X13424Y14084D01*
X13430Y14106D01*
X13558Y14074D01*
Y14072D01*
X13556Y14067D01*
X13553Y14059D01*
X13549Y14048D01*
X13545Y14035D01*
X13540Y14020D01*
X13533Y14003D01*
X13524Y13985D01*
X13505Y13946D01*
X13480Y13907D01*
X13465Y13888D01*
X13449Y13869D01*
X13433Y13852D01*
X13413Y13835D01*
X13412Y13834D01*
X13409Y13831D01*
X13402Y13828D01*
X13395Y13823D01*
X13384Y13816D01*
X13373Y13809D01*
X13358Y13802D01*
X13343Y13795D01*
X13325Y13787D01*
X13305Y13780D01*
X13284Y13773D01*
X13262Y13766D01*
X13239Y13760D01*
X13214Y13758D01*
X13187Y13755D01*
X13160Y13754D01*
X13144D01*
X13133Y13755D01*
X13121D01*
X13105Y13756D01*
X13089Y13759D01*
X13069Y13762D01*
X13029Y13769D01*
X12988Y13780D01*
X12946Y13795D01*
X12927Y13805D01*
X12907Y13816D01*
X12906Y13817D01*
X12903Y13819D01*
X12897Y13823D01*
X12892Y13828D01*
X12884Y13834D01*
X12874Y13842D01*
X12863Y13852D01*
X12852Y13863D01*
X12841Y13876D01*
X12828Y13888D01*
X12803Y13920D01*
X12780Y13957D01*
X12759Y13999D01*
Y14000D01*
X12756Y14005D01*
X12755Y14011D01*
X12750Y14020D01*
X12748Y14031D01*
X12743Y14045D01*
X12738Y14060D01*
X12734Y14077D01*
X12730Y14095D01*
X12724Y14115D01*
X12717Y14158D01*
X12712Y14207D01*
X12709Y14257D01*
Y14258D01*
Y14264D01*
Y14272D01*
X12710Y14282D01*
Y14296D01*
X12712Y14310D01*
X12713Y14328D01*
X12716Y14346D01*
X12723Y14386D01*
X12732Y14430D01*
X12746Y14475D01*
X12766Y14518D01*
X12767Y14519D01*
X12768Y14523D01*
X12771Y14529D01*
X12777Y14536D01*
X12782Y14545D01*
X12789Y14556D01*
X12807Y14581D01*
X12831Y14609D01*
X12859Y14637D01*
X12890Y14665D01*
X12928Y14688D01*
X12929Y14690D01*
X12933Y14691D01*
X12939Y14694D01*
X12946Y14698D01*
X12957Y14702D01*
X12968Y14706D01*
X12982Y14712D01*
X12997Y14717D01*
X13014Y14723D01*
X13032Y14728D01*
X13071Y14737D01*
X13115Y14744D01*
X13161Y14746D01*
X13175D01*
X13184Y14745D01*
D02*
G37*
G36*
X14161Y14109D02*
X14291D01*
Y14000D01*
X14161D01*
Y13770D01*
X14043D01*
Y14000D01*
X13626D01*
Y14109D01*
X14065Y14730D01*
X14161D01*
Y14109D01*
D02*
G37*
G36*
X27806Y37475D02*
X27819Y37473D01*
X27834Y37472D01*
X27849Y37471D01*
X27867Y37466D01*
X27905Y37458D01*
X27946Y37446D01*
X27967Y37437D01*
X27986Y37428D01*
X28006Y37415D01*
X28025Y37403D01*
X28027Y37401D01*
X28029Y37400D01*
X28035Y37396D01*
X28042Y37389D01*
X28049Y37382D01*
X28058Y37372D01*
X28068Y37361D01*
X28079Y37350D01*
X28090Y37336D01*
X28101Y37319D01*
X28114Y37303D01*
X28125Y37285D01*
X28135Y37264D01*
X28146Y37243D01*
X28154Y37221D01*
X28163Y37196D01*
X28038Y37167D01*
Y37168D01*
X28036Y37171D01*
X28034Y37177D01*
X28031Y37184D01*
X28028Y37192D01*
X28024Y37203D01*
X28013Y37225D01*
X27999Y37250D01*
X27982Y37275D01*
X27961Y37299D01*
X27939Y37319D01*
X27936Y37322D01*
X27928Y37328D01*
X27914Y37335D01*
X27896Y37344D01*
X27873Y37353D01*
X27846Y37361D01*
X27814Y37367D01*
X27780Y37368D01*
X27769D01*
X27762Y37367D01*
X27752D01*
X27741Y37365D01*
X27715Y37361D01*
X27685Y37355D01*
X27655Y37346D01*
X27623Y37332D01*
X27594Y37314D01*
X27593D01*
X27591Y37311D01*
X27581Y37304D01*
X27569Y37293D01*
X27554Y37276D01*
X27536Y37256D01*
X27519Y37232D01*
X27504Y37203D01*
X27490Y37171D01*
Y37170D01*
X27489Y37167D01*
X27487Y37163D01*
X27486Y37156D01*
X27483Y37147D01*
X27480Y37138D01*
X27476Y37114D01*
X27470Y37086D01*
X27465Y37056D01*
X27462Y37023D01*
X27461Y36987D01*
Y36985D01*
Y36981D01*
Y36974D01*
Y36966D01*
X27462Y36956D01*
Y36944D01*
X27464Y36930D01*
X27465Y36914D01*
X27469Y36881D01*
X27476Y36845D01*
X27484Y36809D01*
X27495Y36773D01*
Y36772D01*
X27497Y36769D01*
X27500Y36765D01*
X27502Y36758D01*
X27511Y36741D01*
X27523Y36722D01*
X27538Y36700D01*
X27558Y36676D01*
X27580Y36655D01*
X27606Y36636D01*
X27608D01*
X27611Y36634D01*
X27615Y36632D01*
X27620Y36629D01*
X27627Y36626D01*
X27635Y36622D01*
X27655Y36614D01*
X27680Y36605D01*
X27708Y36598D01*
X27738Y36593D01*
X27770Y36591D01*
X27780D01*
X27788Y36593D01*
X27798D01*
X27807Y36594D01*
X27832Y36600D01*
X27862Y36607D01*
X27891Y36618D01*
X27921Y36633D01*
X27936Y36641D01*
X27950Y36652D01*
X27952Y36654D01*
X27953Y36655D01*
X27957Y36659D01*
X27963Y36663D01*
X27968Y36670D01*
X27975Y36679D01*
X27984Y36687D01*
X27991Y36698D01*
X27999Y36711D01*
X28009Y36724D01*
X28017Y36738D01*
X28025Y36755D01*
X28032Y36773D01*
X28039Y36792D01*
X28046Y36813D01*
X28052Y36835D01*
X28179Y36804D01*
Y36802D01*
X28178Y36797D01*
X28175Y36788D01*
X28171Y36777D01*
X28167Y36765D01*
X28161Y36749D01*
X28154Y36733D01*
X28146Y36715D01*
X28126Y36676D01*
X28101Y36637D01*
X28086Y36618D01*
X28071Y36598D01*
X28054Y36582D01*
X28035Y36565D01*
X28034Y36564D01*
X28031Y36561D01*
X28024Y36558D01*
X28017Y36553D01*
X28006Y36546D01*
X27995Y36539D01*
X27979Y36532D01*
X27964Y36525D01*
X27946Y36516D01*
X27927Y36510D01*
X27906Y36503D01*
X27884Y36496D01*
X27860Y36490D01*
X27835Y36487D01*
X27809Y36485D01*
X27781Y36483D01*
X27766D01*
X27755Y36485D01*
X27742D01*
X27727Y36486D01*
X27710Y36489D01*
X27691Y36491D01*
X27651Y36498D01*
X27609Y36510D01*
X27568Y36525D01*
X27548Y36534D01*
X27529Y36546D01*
X27527Y36547D01*
X27525Y36548D01*
X27519Y36553D01*
X27513Y36558D01*
X27505Y36564D01*
X27495Y36572D01*
X27484Y36582D01*
X27473Y36593D01*
X27462Y36605D01*
X27450Y36618D01*
X27425Y36650D01*
X27401Y36687D01*
X27380Y36729D01*
Y36730D01*
X27378Y36734D01*
X27376Y36741D01*
X27372Y36749D01*
X27369Y36761D01*
X27365Y36774D01*
X27360Y36790D01*
X27355Y36806D01*
X27351Y36824D01*
X27346Y36845D01*
X27339Y36888D01*
X27333Y36937D01*
X27330Y36987D01*
Y36988D01*
Y36994D01*
Y37002D01*
X27332Y37012D01*
Y37025D01*
X27333Y37039D01*
X27335Y37057D01*
X27337Y37075D01*
X27344Y37116D01*
X27354Y37160D01*
X27368Y37204D01*
X27387Y37247D01*
X27389Y37249D01*
X27390Y37253D01*
X27393Y37258D01*
X27398Y37265D01*
X27404Y37275D01*
X27411Y37286D01*
X27429Y37311D01*
X27452Y37339D01*
X27480Y37367D01*
X27512Y37394D01*
X27550Y37418D01*
X27551Y37419D01*
X27555Y37421D01*
X27561Y37423D01*
X27568Y37428D01*
X27579Y37432D01*
X27590Y37436D01*
X27604Y37441D01*
X27619Y37447D01*
X27635Y37453D01*
X27654Y37458D01*
X27692Y37466D01*
X27737Y37473D01*
X27783Y37476D01*
X27796D01*
X27806Y37475D01*
D02*
G37*
G36*
X28617Y37462D02*
X28635Y37459D01*
X28658Y37455D01*
X28683Y37448D01*
X28708Y37440D01*
X28733Y37429D01*
X28734D01*
X28735Y37428D01*
X28744Y37423D01*
X28756Y37415D01*
X28770Y37405D01*
X28787Y37392D01*
X28803Y37376D01*
X28820Y37358D01*
X28834Y37337D01*
X28835Y37335D01*
X28839Y37328D01*
X28845Y37315D01*
X28852Y37300D01*
X28859Y37282D01*
X28864Y37261D01*
X28868Y37238D01*
X28870Y37214D01*
Y37211D01*
Y37203D01*
X28868Y37192D01*
X28866Y37177D01*
X28861Y37159D01*
X28855Y37139D01*
X28846Y37120D01*
X28835Y37100D01*
X28834Y37098D01*
X28830Y37092D01*
X28821Y37082D01*
X28810Y37071D01*
X28796Y37059D01*
X28780Y37045D01*
X28760Y37032D01*
X28737Y37020D01*
X28738D01*
X28741Y37018D01*
X28745Y37017D01*
X28751Y37016D01*
X28766Y37010D01*
X28785Y37002D01*
X28807Y36991D01*
X28830Y36977D01*
X28850Y36959D01*
X28870Y36938D01*
X28871Y36935D01*
X28877Y36927D01*
X28885Y36913D01*
X28893Y36895D01*
X28902Y36873D01*
X28910Y36847D01*
X28916Y36816D01*
X28917Y36783D01*
Y36781D01*
Y36777D01*
Y36770D01*
X28916Y36762D01*
X28914Y36751D01*
X28911Y36738D01*
X28909Y36724D01*
X28906Y36709D01*
X28895Y36676D01*
X28886Y36658D01*
X28878Y36641D01*
X28867Y36623D01*
X28855Y36605D01*
X28841Y36587D01*
X28824Y36571D01*
X28823Y36569D01*
X28820Y36566D01*
X28814Y36562D01*
X28807Y36557D01*
X28799Y36550D01*
X28788Y36543D01*
X28775Y36534D01*
X28760Y36528D01*
X28745Y36519D01*
X28727Y36511D01*
X28709Y36504D01*
X28688Y36497D01*
X28666Y36491D01*
X28642Y36487D01*
X28619Y36485D01*
X28592Y36483D01*
X28580D01*
X28572Y36485D01*
X28561Y36486D01*
X28548Y36487D01*
X28534Y36490D01*
X28519Y36493D01*
X28486Y36501D01*
X28451Y36515D01*
X28433Y36523D01*
X28416Y36533D01*
X28400Y36546D01*
X28383Y36558D01*
X28382Y36559D01*
X28379Y36562D01*
X28375Y36566D01*
X28371Y36572D01*
X28364Y36579D01*
X28357Y36589D01*
X28348Y36598D01*
X28340Y36611D01*
X28332Y36625D01*
X28323Y36638D01*
X28308Y36672D01*
X28296Y36711D01*
X28291Y36731D01*
X28289Y36754D01*
X28407Y36769D01*
Y36767D01*
X28408Y36765D01*
X28409Y36759D01*
X28411Y36752D01*
X28412Y36744D01*
X28415Y36734D01*
X28422Y36713D01*
X28432Y36688D01*
X28444Y36665D01*
X28458Y36643D01*
X28475Y36623D01*
X28477Y36622D01*
X28483Y36616D01*
X28494Y36609D01*
X28508Y36602D01*
X28524Y36594D01*
X28545Y36587D01*
X28569Y36582D01*
X28594Y36580D01*
X28602D01*
X28608Y36582D01*
X28623Y36583D01*
X28642Y36587D01*
X28665Y36594D01*
X28688Y36604D01*
X28712Y36618D01*
X28734Y36637D01*
X28737Y36640D01*
X28744Y36648D01*
X28752Y36661D01*
X28763Y36677D01*
X28774Y36698D01*
X28782Y36722D01*
X28789Y36749D01*
X28792Y36780D01*
Y36781D01*
Y36784D01*
Y36788D01*
X28791Y36794D01*
X28789Y36809D01*
X28785Y36827D01*
X28780Y36849D01*
X28770Y36871D01*
X28756Y36894D01*
X28738Y36914D01*
X28735Y36917D01*
X28728Y36923D01*
X28717Y36931D01*
X28702Y36941D01*
X28683Y36951D01*
X28659Y36959D01*
X28633Y36964D01*
X28604Y36967D01*
X28591D01*
X28581Y36966D01*
X28569Y36964D01*
X28555Y36962D01*
X28538Y36959D01*
X28520Y36955D01*
X28534Y37059D01*
X28541D01*
X28547Y37057D01*
X28565D01*
X28580Y37060D01*
X28598Y37063D01*
X28619Y37067D01*
X28642Y37074D01*
X28665Y37084D01*
X28688Y37096D01*
X28690D01*
X28691Y37098D01*
X28698Y37103D01*
X28708Y37113D01*
X28719Y37125D01*
X28730Y37143D01*
X28739Y37164D01*
X28746Y37188D01*
X28749Y37202D01*
Y37217D01*
Y37218D01*
Y37220D01*
Y37228D01*
X28746Y37239D01*
X28744Y37254D01*
X28738Y37271D01*
X28731Y37289D01*
X28720Y37307D01*
X28705Y37324D01*
X28703Y37325D01*
X28696Y37331D01*
X28687Y37337D01*
X28674Y37346D01*
X28658Y37353D01*
X28638Y37360D01*
X28616Y37365D01*
X28591Y37367D01*
X28580D01*
X28567Y37364D01*
X28551Y37361D01*
X28533Y37355D01*
X28515Y37349D01*
X28495Y37337D01*
X28477Y37324D01*
X28476Y37322D01*
X28470Y37315D01*
X28462Y37306D01*
X28452Y37292D01*
X28443Y37274D01*
X28433Y37251D01*
X28425Y37225D01*
X28419Y37195D01*
X28301Y37215D01*
Y37217D01*
X28303Y37221D01*
X28304Y37227D01*
X28305Y37235D01*
X28308Y37245D01*
X28312Y37256D01*
X28321Y37282D01*
X28334Y37312D01*
X28351Y37343D01*
X28372Y37372D01*
X28398Y37398D01*
X28400Y37400D01*
X28402Y37401D01*
X28407Y37404D01*
X28412Y37408D01*
X28419Y37414D01*
X28429Y37419D01*
X28438Y37425D01*
X28451Y37432D01*
X28479Y37443D01*
X28511Y37454D01*
X28548Y37461D01*
X28567Y37464D01*
X28602D01*
X28617Y37462D01*
D02*
G37*
G36*
X31437Y31245D02*
X31450Y31244D01*
X31465Y31242D01*
X31480Y31241D01*
X31498Y31237D01*
X31536Y31228D01*
X31577Y31216D01*
X31598Y31208D01*
X31618Y31198D01*
X31637Y31185D01*
X31656Y31173D01*
X31658Y31172D01*
X31661Y31170D01*
X31666Y31166D01*
X31673Y31159D01*
X31680Y31152D01*
X31690Y31142D01*
X31699Y31131D01*
X31710Y31120D01*
X31722Y31106D01*
X31733Y31090D01*
X31745Y31073D01*
X31756Y31055D01*
X31766Y31034D01*
X31777Y31014D01*
X31785Y30991D01*
X31794Y30966D01*
X31669Y30937D01*
Y30939D01*
X31667Y30941D01*
X31665Y30947D01*
X31662Y30954D01*
X31659Y30962D01*
X31655Y30973D01*
X31644Y30995D01*
X31630Y31020D01*
X31613Y31045D01*
X31593Y31069D01*
X31570Y31090D01*
X31568Y31093D01*
X31559Y31098D01*
X31545Y31105D01*
X31527Y31115D01*
X31504Y31123D01*
X31477Y31131D01*
X31446Y31137D01*
X31411Y31138D01*
X31400D01*
X31393Y31137D01*
X31383D01*
X31372Y31136D01*
X31346Y31131D01*
X31317Y31126D01*
X31286Y31116D01*
X31254Y31102D01*
X31225Y31084D01*
X31224D01*
X31222Y31081D01*
X31213Y31075D01*
X31200Y31063D01*
X31185Y31047D01*
X31167Y31026D01*
X31150Y31002D01*
X31135Y30973D01*
X31121Y30941D01*
Y30940D01*
X31120Y30937D01*
X31118Y30933D01*
X31117Y30926D01*
X31114Y30918D01*
X31111Y30908D01*
X31107Y30885D01*
X31102Y30857D01*
X31096Y30826D01*
X31093Y30793D01*
X31092Y30757D01*
Y30756D01*
Y30751D01*
Y30744D01*
Y30736D01*
X31093Y30726D01*
Y30714D01*
X31095Y30700D01*
X31096Y30685D01*
X31100Y30652D01*
X31107Y30615D01*
X31116Y30579D01*
X31127Y30543D01*
Y30542D01*
X31128Y30539D01*
X31131Y30535D01*
X31134Y30528D01*
X31142Y30511D01*
X31154Y30492D01*
X31170Y30470D01*
X31189Y30446D01*
X31211Y30425D01*
X31238Y30406D01*
X31239D01*
X31242Y30405D01*
X31246Y30402D01*
X31251Y30399D01*
X31258Y30396D01*
X31267Y30392D01*
X31286Y30384D01*
X31311Y30376D01*
X31339Y30369D01*
X31369Y30363D01*
X31401Y30362D01*
X31411D01*
X31419Y30363D01*
X31429D01*
X31439Y30364D01*
X31464Y30370D01*
X31493Y30377D01*
X31522Y30388D01*
X31552Y30403D01*
X31568Y30412D01*
X31581Y30423D01*
X31583Y30424D01*
X31584Y30425D01*
X31588Y30430D01*
X31594Y30434D01*
X31600Y30441D01*
X31606Y30449D01*
X31615Y30457D01*
X31622Y30468D01*
X31630Y30481D01*
X31640Y30495D01*
X31648Y30509D01*
X31656Y30525D01*
X31663Y30543D01*
X31670Y30563D01*
X31677Y30584D01*
X31683Y30606D01*
X31810Y30574D01*
Y30572D01*
X31809Y30567D01*
X31806Y30559D01*
X31802Y30548D01*
X31798Y30535D01*
X31792Y30520D01*
X31785Y30503D01*
X31777Y30485D01*
X31758Y30446D01*
X31733Y30407D01*
X31717Y30388D01*
X31702Y30369D01*
X31686Y30352D01*
X31666Y30335D01*
X31665Y30334D01*
X31662Y30331D01*
X31655Y30328D01*
X31648Y30323D01*
X31637Y30316D01*
X31626Y30309D01*
X31611Y30302D01*
X31595Y30295D01*
X31577Y30287D01*
X31558Y30280D01*
X31537Y30273D01*
X31515Y30266D01*
X31491Y30260D01*
X31466Y30258D01*
X31440Y30255D01*
X31412Y30254D01*
X31397D01*
X31386Y30255D01*
X31373D01*
X31358Y30256D01*
X31342Y30259D01*
X31322Y30262D01*
X31282Y30269D01*
X31240Y30280D01*
X31199Y30295D01*
X31179Y30305D01*
X31160Y30316D01*
X31159Y30317D01*
X31156Y30319D01*
X31150Y30323D01*
X31145Y30328D01*
X31136Y30334D01*
X31127Y30342D01*
X31116Y30352D01*
X31104Y30363D01*
X31093Y30376D01*
X31081Y30388D01*
X31056Y30420D01*
X31032Y30457D01*
X31012Y30499D01*
Y30500D01*
X31009Y30505D01*
X31007Y30511D01*
X31003Y30520D01*
X31000Y30531D01*
X30996Y30545D01*
X30991Y30560D01*
X30987Y30577D01*
X30982Y30595D01*
X30977Y30615D01*
X30970Y30658D01*
X30964Y30707D01*
X30962Y30757D01*
Y30758D01*
Y30764D01*
Y30772D01*
X30963Y30782D01*
Y30796D01*
X30964Y30810D01*
X30966Y30828D01*
X30969Y30846D01*
X30975Y30886D01*
X30985Y30930D01*
X30999Y30975D01*
X31018Y31018D01*
X31020Y31019D01*
X31021Y31023D01*
X31024Y31029D01*
X31030Y31036D01*
X31035Y31045D01*
X31042Y31056D01*
X31060Y31081D01*
X31084Y31109D01*
X31111Y31137D01*
X31143Y31165D01*
X31181Y31188D01*
X31182Y31190D01*
X31186Y31191D01*
X31192Y31194D01*
X31199Y31198D01*
X31210Y31202D01*
X31221Y31206D01*
X31235Y31212D01*
X31250Y31217D01*
X31267Y31223D01*
X31285Y31228D01*
X31324Y31237D01*
X31368Y31244D01*
X31414Y31246D01*
X31428D01*
X31437Y31245D01*
D02*
G37*
G36*
X32260Y31233D02*
X32271Y31231D01*
X32285Y31230D01*
X32300Y31227D01*
X32315Y31224D01*
X32351Y31215D01*
X32387Y31201D01*
X32405Y31192D01*
X32423Y31183D01*
X32440Y31170D01*
X32455Y31156D01*
X32457Y31155D01*
X32459Y31154D01*
X32462Y31148D01*
X32468Y31142D01*
X32475Y31136D01*
X32482Y31126D01*
X32488Y31116D01*
X32497Y31104D01*
X32511Y31077D01*
X32525Y31044D01*
X32530Y31027D01*
X32533Y31008D01*
X32536Y30989D01*
X32537Y30968D01*
Y30965D01*
Y30958D01*
X32536Y30947D01*
X32534Y30932D01*
X32531Y30915D01*
X32526Y30896D01*
X32520Y30875D01*
X32512Y30854D01*
X32511Y30851D01*
X32508Y30844D01*
X32502Y30833D01*
X32494Y30818D01*
X32483Y30801D01*
X32469Y30781D01*
X32452Y30760D01*
X32433Y30736D01*
X32430Y30733D01*
X32423Y30725D01*
X32416Y30718D01*
X32409Y30711D01*
X32401Y30703D01*
X32390Y30692D01*
X32379Y30681D01*
X32365Y30668D01*
X32351Y30654D01*
X32335Y30639D01*
X32317Y30624D01*
X32297Y30606D01*
X32275Y30588D01*
X32253Y30568D01*
X32251Y30567D01*
X32249Y30564D01*
X32243Y30560D01*
X32236Y30554D01*
X32228Y30546D01*
X32218Y30538D01*
X32196Y30520D01*
X32172Y30499D01*
X32150Y30478D01*
X32131Y30460D01*
X32122Y30453D01*
X32115Y30446D01*
X32114Y30445D01*
X32110Y30441D01*
X32104Y30435D01*
X32097Y30427D01*
X32090Y30417D01*
X32082Y30407D01*
X32066Y30384D01*
X32538D01*
Y30270D01*
X31902D01*
Y30272D01*
Y30277D01*
Y30285D01*
X31903Y30296D01*
X31905Y30309D01*
X31907Y30323D01*
X31910Y30337D01*
X31916Y30352D01*
Y30353D01*
X31917Y30355D01*
X31920Y30363D01*
X31925Y30376D01*
X31934Y30392D01*
X31945Y30412D01*
X31959Y30434D01*
X31974Y30456D01*
X31993Y30480D01*
Y30481D01*
X31996Y30482D01*
X32003Y30491D01*
X32016Y30503D01*
X32034Y30521D01*
X32054Y30542D01*
X32081Y30567D01*
X32113Y30595D01*
X32147Y30624D01*
X32149Y30625D01*
X32154Y30629D01*
X32163Y30636D01*
X32172Y30645D01*
X32185Y30656D01*
X32200Y30668D01*
X32215Y30682D01*
X32233Y30697D01*
X32268Y30731D01*
X32303Y30764D01*
X32319Y30781D01*
X32335Y30797D01*
X32348Y30812D01*
X32360Y30828D01*
Y30829D01*
X32362Y30830D01*
X32365Y30835D01*
X32368Y30840D01*
X32378Y30855D01*
X32389Y30873D01*
X32398Y30896D01*
X32408Y30919D01*
X32414Y30946D01*
X32416Y30971D01*
Y30972D01*
Y30973D01*
X32415Y30982D01*
X32414Y30995D01*
X32409Y31011D01*
X32404Y31030D01*
X32394Y31050D01*
X32382Y31069D01*
X32365Y31088D01*
X32362Y31091D01*
X32355Y31097D01*
X32346Y31104D01*
X32330Y31113D01*
X32311Y31122D01*
X32289Y31130D01*
X32262Y31136D01*
X32233Y31137D01*
X32225D01*
X32219Y31136D01*
X32203Y31134D01*
X32183Y31130D01*
X32163Y31124D01*
X32139Y31115D01*
X32117Y31102D01*
X32096Y31086D01*
X32093Y31083D01*
X32088Y31076D01*
X32079Y31065D01*
X32071Y31048D01*
X32061Y31029D01*
X32053Y31004D01*
X32047Y30976D01*
X32045Y30944D01*
X31924Y30957D01*
Y30958D01*
X31925Y30962D01*
Y30969D01*
X31927Y30979D01*
X31930Y30990D01*
X31932Y31002D01*
X31937Y31018D01*
X31941Y31033D01*
X31952Y31066D01*
X31968Y31099D01*
X31978Y31116D01*
X31991Y31133D01*
X32003Y31148D01*
X32017Y31162D01*
X32018Y31163D01*
X32021Y31165D01*
X32025Y31169D01*
X32032Y31173D01*
X32041Y31179D01*
X32050Y31184D01*
X32061Y31191D01*
X32075Y31198D01*
X32090Y31205D01*
X32107Y31212D01*
X32125Y31217D01*
X32145Y31223D01*
X32165Y31227D01*
X32188Y31231D01*
X32211Y31233D01*
X32236Y31234D01*
X32250D01*
X32260Y31233D01*
D02*
G37*
G36*
X38400Y34995D02*
X38413Y34994D01*
X38428Y34992D01*
X38443Y34991D01*
X38461Y34987D01*
X38499Y34978D01*
X38540Y34966D01*
X38561Y34958D01*
X38581Y34948D01*
X38600Y34935D01*
X38619Y34923D01*
X38621Y34922D01*
X38624Y34920D01*
X38629Y34916D01*
X38636Y34909D01*
X38643Y34902D01*
X38653Y34892D01*
X38662Y34881D01*
X38674Y34870D01*
X38685Y34856D01*
X38696Y34840D01*
X38708Y34823D01*
X38719Y34805D01*
X38729Y34784D01*
X38740Y34764D01*
X38748Y34741D01*
X38757Y34716D01*
X38632Y34687D01*
Y34689D01*
X38631Y34691D01*
X38628Y34697D01*
X38625Y34704D01*
X38622Y34712D01*
X38618Y34723D01*
X38607Y34745D01*
X38593Y34770D01*
X38576Y34795D01*
X38556Y34819D01*
X38533Y34840D01*
X38531Y34843D01*
X38522Y34848D01*
X38509Y34855D01*
X38490Y34865D01*
X38467Y34873D01*
X38441Y34881D01*
X38409Y34887D01*
X38374Y34888D01*
X38363D01*
X38356Y34887D01*
X38346D01*
X38335Y34886D01*
X38309Y34881D01*
X38280Y34876D01*
X38249Y34866D01*
X38217Y34852D01*
X38188Y34834D01*
X38187D01*
X38185Y34831D01*
X38176Y34825D01*
X38163Y34813D01*
X38148Y34797D01*
X38130Y34776D01*
X38113Y34752D01*
X38098Y34723D01*
X38084Y34691D01*
Y34690D01*
X38083Y34687D01*
X38081Y34683D01*
X38080Y34676D01*
X38077Y34668D01*
X38074Y34658D01*
X38070Y34635D01*
X38065Y34607D01*
X38059Y34576D01*
X38056Y34543D01*
X38055Y34507D01*
Y34506D01*
Y34501D01*
Y34494D01*
Y34486D01*
X38056Y34476D01*
Y34464D01*
X38058Y34450D01*
X38059Y34435D01*
X38063Y34402D01*
X38070Y34365D01*
X38079Y34329D01*
X38090Y34293D01*
Y34292D01*
X38091Y34289D01*
X38094Y34285D01*
X38097Y34278D01*
X38105Y34261D01*
X38117Y34242D01*
X38133Y34220D01*
X38152Y34196D01*
X38174Y34175D01*
X38201Y34156D01*
X38202D01*
X38205Y34155D01*
X38209Y34152D01*
X38215Y34149D01*
X38221Y34146D01*
X38230Y34142D01*
X38249Y34134D01*
X38274Y34126D01*
X38302Y34119D01*
X38332Y34113D01*
X38364Y34112D01*
X38374D01*
X38382Y34113D01*
X38392D01*
X38402Y34114D01*
X38427Y34120D01*
X38456Y34127D01*
X38485Y34138D01*
X38515Y34153D01*
X38531Y34162D01*
X38545Y34173D01*
X38546Y34174D01*
X38547Y34175D01*
X38551Y34180D01*
X38557Y34184D01*
X38563Y34191D01*
X38570Y34199D01*
X38578Y34207D01*
X38585Y34218D01*
X38593Y34231D01*
X38603Y34245D01*
X38611Y34259D01*
X38619Y34275D01*
X38626Y34293D01*
X38633Y34313D01*
X38640Y34334D01*
X38646Y34356D01*
X38773Y34324D01*
Y34322D01*
X38772Y34317D01*
X38769Y34309D01*
X38765Y34298D01*
X38761Y34285D01*
X38755Y34270D01*
X38748Y34253D01*
X38740Y34235D01*
X38721Y34196D01*
X38696Y34157D01*
X38680Y34138D01*
X38665Y34119D01*
X38649Y34102D01*
X38629Y34085D01*
X38628Y34084D01*
X38625Y34081D01*
X38618Y34078D01*
X38611Y34073D01*
X38600Y34066D01*
X38589Y34059D01*
X38574Y34052D01*
X38558Y34045D01*
X38540Y34037D01*
X38521Y34030D01*
X38500Y34023D01*
X38478Y34016D01*
X38454Y34010D01*
X38429Y34008D01*
X38403Y34005D01*
X38375Y34004D01*
X38360D01*
X38349Y34005D01*
X38337D01*
X38321Y34006D01*
X38305Y34009D01*
X38285Y34012D01*
X38245Y34019D01*
X38203Y34030D01*
X38162Y34045D01*
X38142Y34055D01*
X38123Y34066D01*
X38122Y34067D01*
X38119Y34069D01*
X38113Y34073D01*
X38108Y34078D01*
X38099Y34084D01*
X38090Y34092D01*
X38079Y34102D01*
X38067Y34113D01*
X38056Y34126D01*
X38044Y34138D01*
X38019Y34170D01*
X37995Y34207D01*
X37975Y34249D01*
Y34250D01*
X37972Y34255D01*
X37970Y34261D01*
X37966Y34270D01*
X37963Y34281D01*
X37959Y34295D01*
X37954Y34310D01*
X37950Y34327D01*
X37945Y34345D01*
X37940Y34365D01*
X37933Y34408D01*
X37927Y34457D01*
X37925Y34507D01*
Y34508D01*
Y34514D01*
Y34522D01*
X37926Y34532D01*
Y34546D01*
X37927Y34560D01*
X37929Y34578D01*
X37932Y34596D01*
X37939Y34636D01*
X37948Y34680D01*
X37962Y34725D01*
X37982Y34768D01*
X37983Y34769D01*
X37984Y34773D01*
X37987Y34779D01*
X37993Y34786D01*
X37998Y34795D01*
X38005Y34806D01*
X38023Y34831D01*
X38047Y34859D01*
X38074Y34887D01*
X38106Y34915D01*
X38144Y34938D01*
X38145Y34940D01*
X38149Y34941D01*
X38155Y34944D01*
X38162Y34948D01*
X38173Y34952D01*
X38184Y34956D01*
X38198Y34962D01*
X38213Y34967D01*
X38230Y34973D01*
X38248Y34978D01*
X38287Y34987D01*
X38331Y34994D01*
X38377Y34996D01*
X38391D01*
X38400Y34995D01*
D02*
G37*
G36*
X39325Y34020D02*
X39207D01*
Y34770D01*
X39206Y34769D01*
X39199Y34764D01*
X39191Y34755D01*
X39177Y34745D01*
X39162Y34733D01*
X39142Y34719D01*
X39120Y34704D01*
X39095Y34689D01*
X39094D01*
X39092Y34687D01*
X39084Y34682D01*
X39070Y34675D01*
X39054Y34666D01*
X39034Y34657D01*
X39013Y34647D01*
X38993Y34637D01*
X38972Y34629D01*
Y34743D01*
X38973D01*
X38976Y34745D01*
X38981Y34747D01*
X38988Y34751D01*
X38997Y34755D01*
X39006Y34761D01*
X39030Y34775D01*
X39058Y34790D01*
X39085Y34809D01*
X39115Y34831D01*
X39144Y34855D01*
X39145Y34856D01*
X39146Y34858D01*
X39151Y34862D01*
X39156Y34866D01*
X39169Y34880D01*
X39185Y34897D01*
X39202Y34916D01*
X39220Y34938D01*
X39235Y34960D01*
X39249Y34984D01*
X39325D01*
Y34020D01*
D02*
G37*
%LPC*%
G36*
X22855Y25941D02*
X22628D01*
Y25653D01*
X22863D01*
X22882Y25654D01*
X22901Y25655D01*
X22920Y25657D01*
X22940Y25660D01*
X22955Y25662D01*
X22958Y25664D01*
X22963Y25665D01*
X22972Y25669D01*
X22983Y25675D01*
X22994Y25680D01*
X23006Y25689D01*
X23019Y25700D01*
X23029Y25711D01*
X23030Y25712D01*
X23033Y25716D01*
X23037Y25725D01*
X23041Y25735D01*
X23045Y25746D01*
X23049Y25760D01*
X23052Y25776D01*
X23053Y25794D01*
Y25797D01*
Y25802D01*
X23052Y25811D01*
X23051Y25822D01*
X23048Y25836D01*
X23044Y25850D01*
X23038Y25864D01*
X23030Y25877D01*
X23029Y25879D01*
X23026Y25883D01*
X23020Y25890D01*
X23013Y25897D01*
X23004Y25905D01*
X22992Y25913D01*
X22979Y25922D01*
X22963Y25927D01*
X22962D01*
X22955Y25930D01*
X22945Y25931D01*
X22930Y25934D01*
X22909Y25937D01*
X22886Y25938D01*
X22855Y25941D01*
D02*
G37*
G36*
X22880Y25539D02*
X22628D01*
Y25209D01*
X22901D01*
X22930Y25210D01*
X22943Y25212D01*
X22954Y25213D01*
X22955D01*
X22961Y25214D01*
X22969Y25216D01*
X22979Y25219D01*
X23002Y25227D01*
X23026Y25238D01*
X23027Y25239D01*
X23031Y25242D01*
X23037Y25246D01*
X23044Y25252D01*
X23051Y25260D01*
X23060Y25269D01*
X23067Y25280D01*
X23076Y25292D01*
X23077Y25294D01*
X23078Y25298D01*
X23081Y25306D01*
X23085Y25316D01*
X23090Y25327D01*
X23092Y25341D01*
X23094Y25357D01*
X23095Y25374D01*
Y25377D01*
Y25382D01*
X23094Y25393D01*
X23091Y25406D01*
X23088Y25420D01*
X23083Y25435D01*
X23076Y25450D01*
X23066Y25465D01*
X23065Y25467D01*
X23060Y25472D01*
X23055Y25479D01*
X23047Y25488D01*
X23035Y25497D01*
X23022Y25507D01*
X23006Y25515D01*
X22988Y25522D01*
X22986Y25524D01*
X22980Y25525D01*
X22967Y25528D01*
X22952Y25531D01*
X22933Y25533D01*
X22909Y25536D01*
X22880Y25539D01*
D02*
G37*
G36*
X13661Y23121D02*
X13359D01*
Y22803D01*
X13644D01*
X13661Y22805D01*
X13680Y22806D01*
X13703Y22808D01*
X13725Y22810D01*
X13747Y22814D01*
X13766Y22820D01*
X13769Y22821D01*
X13775Y22824D01*
X13783Y22828D01*
X13794Y22834D01*
X13807Y22842D01*
X13819Y22852D01*
X13832Y22864D01*
X13841Y22878D01*
X13843Y22880D01*
X13845Y22885D01*
X13850Y22894D01*
X13855Y22905D01*
X13859Y22917D01*
X13863Y22931D01*
X13866Y22948D01*
X13868Y22964D01*
Y22966D01*
Y22967D01*
X13866Y22975D01*
X13865Y22988D01*
X13862Y23004D01*
X13855Y23021D01*
X13847Y23041D01*
X13834Y23059D01*
X13818Y23077D01*
X13815Y23078D01*
X13808Y23084D01*
X13797Y23090D01*
X13779Y23099D01*
X13758Y23107D01*
X13730Y23114D01*
X13698Y23120D01*
X13661Y23121D01*
D02*
G37*
G36*
X29999Y23621D02*
X29697D01*
Y23303D01*
X29982D01*
X29999Y23305D01*
X30018Y23306D01*
X30041Y23308D01*
X30063Y23310D01*
X30085Y23314D01*
X30104Y23320D01*
X30107Y23321D01*
X30113Y23324D01*
X30121Y23328D01*
X30132Y23334D01*
X30145Y23342D01*
X30157Y23352D01*
X30170Y23364D01*
X30179Y23378D01*
X30181Y23380D01*
X30183Y23385D01*
X30188Y23394D01*
X30193Y23405D01*
X30197Y23417D01*
X30201Y23431D01*
X30204Y23448D01*
X30206Y23464D01*
Y23466D01*
Y23467D01*
X30204Y23475D01*
X30203Y23488D01*
X30200Y23504D01*
X30193Y23521D01*
X30185Y23541D01*
X30172Y23559D01*
X30156Y23577D01*
X30153Y23578D01*
X30146Y23584D01*
X30135Y23590D01*
X30117Y23599D01*
X30096Y23607D01*
X30068Y23614D01*
X30036Y23620D01*
X29999Y23621D01*
D02*
G37*
G36*
X17257Y7864D02*
X16983D01*
Y7521D01*
X17241D01*
X17250Y7523D01*
X17260D01*
X17271Y7524D01*
X17298Y7527D01*
X17327Y7533D01*
X17356Y7541D01*
X17382Y7552D01*
X17395Y7559D01*
X17404Y7567D01*
X17407Y7570D01*
X17413Y7576D01*
X17421Y7587D01*
X17431Y7601D01*
X17440Y7619D01*
X17449Y7641D01*
X17454Y7666D01*
X17457Y7695D01*
Y7696D01*
Y7698D01*
Y7705D01*
X17456Y7717D01*
X17453Y7731D01*
X17450Y7746D01*
X17445Y7764D01*
X17436Y7781D01*
X17427Y7797D01*
X17425Y7799D01*
X17421Y7804D01*
X17414Y7811D01*
X17406Y7821D01*
X17393Y7831D01*
X17379Y7839D01*
X17364Y7847D01*
X17346Y7854D01*
X17345D01*
X17339Y7856D01*
X17331Y7857D01*
X17320Y7860D01*
X17303Y7861D01*
X17282Y7863D01*
X17257Y7864D01*
D02*
G37*
G36*
X35168Y34114D02*
X34946D01*
Y33382D01*
X35173D01*
X35183Y33383D01*
X35204Y33385D01*
X35227Y33386D01*
X35252Y33389D01*
X35277Y33393D01*
X35298Y33398D01*
X35301Y33400D01*
X35308Y33401D01*
X35318Y33405D01*
X35330Y33411D01*
X35344Y33419D01*
X35358Y33428D01*
X35372Y33437D01*
X35386Y33448D01*
X35387Y33451D01*
X35393Y33457D01*
X35401Y33466D01*
X35411Y33480D01*
X35422Y33498D01*
X35434Y33519D01*
X35445Y33543D01*
X35455Y33569D01*
Y33570D01*
X35456Y33573D01*
X35458Y33577D01*
X35459Y33583D01*
X35460Y33590D01*
X35463Y33600D01*
X35466Y33609D01*
X35469Y33620D01*
X35473Y33648D01*
X35477Y33680D01*
X35480Y33716D01*
X35481Y33755D01*
Y33756D01*
Y33762D01*
Y33769D01*
X35480Y33780D01*
Y33792D01*
X35479Y33806D01*
X35477Y33823D01*
X35476Y33839D01*
X35469Y33877D01*
X35460Y33916D01*
X35448Y33952D01*
X35440Y33970D01*
X35431Y33985D01*
Y33986D01*
X35429Y33989D01*
X35426Y33993D01*
X35423Y33999D01*
X35412Y34013D01*
X35398Y34029D01*
X35380Y34047D01*
X35359Y34066D01*
X35336Y34081D01*
X35311Y34093D01*
X35308Y34095D01*
X35301Y34096D01*
X35289Y34100D01*
X35270Y34104D01*
X35248Y34107D01*
X35221Y34111D01*
X35204Y34113D01*
X35186D01*
X35168Y34114D01*
D02*
G37*
G36*
X13100Y19137D02*
X13092D01*
X13086Y19136D01*
X13071Y19133D01*
X13053Y19129D01*
X13032Y19120D01*
X13010Y19108D01*
X12999Y19099D01*
X12988Y19091D01*
X12978Y19080D01*
X12968Y19068D01*
Y19066D01*
X12966Y19063D01*
X12963Y19058D01*
X12959Y19051D01*
X12955Y19040D01*
X12949Y19027D01*
X12945Y19012D01*
X12939Y18994D01*
X12934Y18973D01*
X12928Y18950D01*
X12923Y18923D01*
X12918Y18894D01*
X12914Y18861D01*
X12912Y18825D01*
X12910Y18786D01*
X12909Y18743D01*
Y18740D01*
Y18733D01*
Y18721D01*
X12910Y18704D01*
Y18686D01*
X12912Y18664D01*
X12913Y18640D01*
X12916Y18615D01*
X12923Y18561D01*
X12927Y18535D01*
X12932Y18510D01*
X12938Y18486D01*
X12946Y18464D01*
X12955Y18445D01*
X12964Y18428D01*
Y18427D01*
X12967Y18425D01*
X12974Y18416D01*
X12986Y18403D01*
X13002Y18389D01*
X13022Y18376D01*
X13046Y18363D01*
X13072Y18353D01*
X13086Y18352D01*
X13102Y18351D01*
X13110D01*
X13115Y18352D01*
X13129Y18355D01*
X13149Y18360D01*
X13169Y18370D01*
X13193Y18384D01*
X13204Y18392D01*
X13215Y18403D01*
X13226Y18414D01*
X13237Y18428D01*
Y18430D01*
X13240Y18432D01*
X13243Y18437D01*
X13246Y18444D01*
X13251Y18453D01*
X13255Y18466D01*
X13261Y18480D01*
X13267Y18496D01*
X13271Y18517D01*
X13276Y18539D01*
X13282Y18566D01*
X13286Y18593D01*
X13289Y18627D01*
X13292Y18661D01*
X13294Y18700D01*
Y18743D01*
Y18744D01*
Y18746D01*
Y18753D01*
Y18765D01*
X13293Y18782D01*
Y18800D01*
X13292Y18822D01*
X13290Y18846D01*
X13287Y18872D01*
X13280Y18925D01*
X13276Y18951D01*
X13271Y18976D01*
X13265Y19000D01*
X13257Y19022D01*
X13249Y19041D01*
X13239Y19058D01*
Y19059D01*
X13236Y19061D01*
X13233Y19065D01*
X13229Y19070D01*
X13217Y19083D01*
X13201Y19098D01*
X13181Y19112D01*
X13157Y19124D01*
X13145Y19130D01*
X13131Y19134D01*
X13115Y19136D01*
X13100Y19137D01*
D02*
G37*
G36*
X16243Y20637D02*
X16221D01*
X16215Y20636D01*
X16200Y20634D01*
X16182Y20629D01*
X16160Y20622D01*
X16136Y20609D01*
X16113Y20594D01*
X16102Y20583D01*
X16090Y20572D01*
Y20570D01*
X16088Y20569D01*
X16085Y20565D01*
X16082Y20561D01*
X16072Y20547D01*
X16063Y20527D01*
X16052Y20504D01*
X16042Y20475D01*
X16036Y20441D01*
X16034Y20405D01*
Y20404D01*
Y20401D01*
Y20397D01*
X16035Y20390D01*
Y20382D01*
X16036Y20373D01*
X16041Y20353D01*
X16047Y20329D01*
X16056Y20304D01*
X16070Y20279D01*
X16088Y20257D01*
X16090Y20254D01*
X16097Y20249D01*
X16110Y20239D01*
X16125Y20229D01*
X16146Y20218D01*
X16170Y20208D01*
X16196Y20203D01*
X16225Y20200D01*
X16233D01*
X16239Y20201D01*
X16254Y20203D01*
X16272Y20207D01*
X16294Y20214D01*
X16317Y20224D01*
X16339Y20238D01*
X16360Y20257D01*
X16362Y20260D01*
X16368Y20268D01*
X16376Y20281D01*
X16387Y20299D01*
X16397Y20321D01*
X16405Y20347D01*
X16411Y20379D01*
X16414Y20415D01*
Y20416D01*
Y20419D01*
Y20425D01*
X16412Y20432D01*
Y20441D01*
X16411Y20451D01*
X16407Y20473D01*
X16401Y20500D01*
X16391Y20527D01*
X16378Y20554D01*
X16360Y20577D01*
Y20579D01*
X16357Y20580D01*
X16350Y20587D01*
X16339Y20597D01*
X16323Y20608D01*
X16304Y20618D01*
X16282Y20627D01*
X16257Y20634D01*
X16243Y20637D01*
D02*
G37*
G36*
X20728Y22637D02*
X20717D01*
X20704Y22634D01*
X20688Y22631D01*
X20670Y22626D01*
X20650Y22619D01*
X20632Y22608D01*
X20614Y22593D01*
X20613Y22591D01*
X20607Y22586D01*
X20600Y22576D01*
X20593Y22563D01*
X20585Y22548D01*
X20578Y22530D01*
X20572Y22511D01*
X20571Y22489D01*
Y22487D01*
Y22486D01*
X20572Y22477D01*
X20574Y22465D01*
X20577Y22450D01*
X20582Y22432D01*
X20589Y22414D01*
X20600Y22394D01*
X20614Y22378D01*
X20615Y22376D01*
X20622Y22371D01*
X20632Y22364D01*
X20645Y22357D01*
X20661Y22348D01*
X20681Y22342D01*
X20703Y22336D01*
X20728Y22335D01*
X20731D01*
X20739Y22336D01*
X20751Y22337D01*
X20768Y22340D01*
X20786Y22346D01*
X20804Y22353D01*
X20823Y22364D01*
X20840Y22378D01*
X20841Y22379D01*
X20847Y22386D01*
X20854Y22394D01*
X20862Y22407D01*
X20871Y22422D01*
X20878Y22440D01*
X20883Y22461D01*
X20884Y22483D01*
Y22484D01*
Y22486D01*
Y22494D01*
X20882Y22507D01*
X20879Y22522D01*
X20873Y22538D01*
X20865Y22556D01*
X20854Y22575D01*
X20839Y22593D01*
X20837Y22594D01*
X20830Y22599D01*
X20821Y22606D01*
X20808Y22615D01*
X20792Y22623D01*
X20774Y22630D01*
X20751Y22636D01*
X20728Y22637D01*
D02*
G37*
G36*
X20724Y22239D02*
X20715D01*
X20710Y22238D01*
X20694Y22236D01*
X20675Y22232D01*
X20653Y22225D01*
X20631Y22215D01*
X20607Y22201D01*
X20586Y22183D01*
X20584Y22181D01*
X20578Y22174D01*
X20570Y22161D01*
X20560Y22146D01*
X20549Y22125D01*
X20541Y22102D01*
X20535Y22075D01*
X20532Y22046D01*
Y22043D01*
Y22038D01*
X20534Y22028D01*
X20535Y22016D01*
X20538Y22000D01*
X20542Y21984D01*
X20547Y21967D01*
X20554Y21949D01*
X20556Y21948D01*
X20559Y21941D01*
X20564Y21932D01*
X20572Y21923D01*
X20582Y21910D01*
X20595Y21898D01*
X20608Y21887D01*
X20625Y21876D01*
X20628Y21874D01*
X20633Y21871D01*
X20643Y21867D01*
X20656Y21863D01*
X20671Y21859D01*
X20689Y21855D01*
X20708Y21852D01*
X20728Y21851D01*
X20736D01*
X20742Y21852D01*
X20758Y21853D01*
X20778Y21858D01*
X20800Y21864D01*
X20823Y21873D01*
X20846Y21887D01*
X20868Y21905D01*
X20871Y21907D01*
X20876Y21914D01*
X20886Y21927D01*
X20896Y21942D01*
X20905Y21962D01*
X20915Y21985D01*
X20921Y22013D01*
X20923Y22042D01*
Y22043D01*
Y22046D01*
Y22050D01*
X20922Y22056D01*
X20921Y22071D01*
X20916Y22092D01*
X20909Y22113D01*
X20900Y22136D01*
X20886Y22160D01*
X20866Y22182D01*
X20864Y22185D01*
X20857Y22190D01*
X20844Y22200D01*
X20828Y22211D01*
X20807Y22221D01*
X20782Y22231D01*
X20754Y22236D01*
X20724Y22239D01*
D02*
G37*
G36*
X28485Y23039D02*
X28477D01*
X28472Y23037D01*
X28458Y23036D01*
X28438Y23032D01*
X28417Y23025D01*
X28394Y23014D01*
X28372Y23000D01*
X28349Y22981D01*
X28347Y22978D01*
X28341Y22971D01*
X28331Y22958D01*
X28322Y22940D01*
X28312Y22920D01*
X28302Y22893D01*
X28297Y22864D01*
X28294Y22831D01*
Y22828D01*
Y22821D01*
X28295Y22809D01*
X28297Y22793D01*
X28300Y22775D01*
X28305Y22756D01*
X28311Y22735D01*
X28319Y22714D01*
X28320Y22712D01*
X28325Y22705D01*
X28330Y22695D01*
X28338Y22682D01*
X28348Y22670D01*
X28361Y22655D01*
X28374Y22642D01*
X28391Y22630D01*
X28394Y22628D01*
X28399Y22626D01*
X28409Y22620D01*
X28422Y22616D01*
X28435Y22610D01*
X28452Y22605D01*
X28470Y22602D01*
X28490Y22601D01*
X28496D01*
X28502Y22602D01*
X28516Y22603D01*
X28534Y22608D01*
X28553Y22616D01*
X28576Y22626D01*
X28598Y22641D01*
X28609Y22649D01*
X28619Y22660D01*
Y22662D01*
X28621Y22663D01*
X28627Y22671D01*
X28635Y22685D01*
X28646Y22703D01*
X28656Y22727D01*
X28664Y22755D01*
X28670Y22786D01*
X28673Y22824D01*
Y22825D01*
Y22828D01*
Y22834D01*
X28671Y22841D01*
Y22849D01*
X28670Y22859D01*
X28666Y22881D01*
X28660Y22906D01*
X28650Y22932D01*
X28637Y22957D01*
X28619Y22981D01*
X28616Y22983D01*
X28609Y22990D01*
X28598Y22999D01*
X28582Y23010D01*
X28563Y23021D01*
X28541Y23029D01*
X28515Y23036D01*
X28485Y23039D01*
D02*
G37*
G36*
X14043Y14538D02*
X13741Y14109D01*
X14043D01*
Y14538D01*
D02*
G37*
%LPD*%
D10*
X30653Y32000D02*
G03*
X30653Y32000I-125J0D01*
G01*
X40265Y33200D02*
G03*
X40265Y33200I-125J0D01*
G01*
X34191Y24270D02*
G03*
X34191Y24270I-125J0D01*
G01*
X35600Y27050D02*
G03*
X35600Y27050I-125J0D01*
G01*
X15640Y11021D02*
G03*
X15640Y11021I-125J0D01*
G01*
X18065Y20925D02*
G03*
X18065Y20925I-125J0D01*
G01*
D11*
X34649Y20951D02*
G03*
X34649Y25049I1601J2049D01*
G01*
X21975Y23025D02*
X23025D01*
X21975Y24475D02*
X23025D01*
X28247Y31550D02*
Y34450D01*
X28253D01*
Y31550D02*
Y34450D01*
X28247Y31550D02*
X28253D01*
X43440Y30480D02*
X47210D01*
X45077D02*
X47210D01*
Y38520D01*
X43440D02*
X47210D01*
X34650Y20951D02*
Y25049D01*
X33530Y27965D02*
X34075D01*
X36925D02*
X37470D01*
Y32535D01*
X33530D02*
X34075D01*
X36925D02*
X37470D01*
X33530Y27965D02*
Y32535D01*
X28615Y11020D02*
X28850D01*
X26075Y8480D02*
X28850D01*
Y11020D01*
X16150Y8480D02*
Y11020D01*
Y8480D02*
X18925D01*
X20995D02*
X24005D01*
X18455Y11020D02*
X21465D01*
X23535D02*
X26545D01*
X16150D02*
X16385D01*
X20945Y21250D02*
X23741D01*
Y14750D02*
Y21250D01*
X20945Y14750D02*
X23741D01*
X20945D02*
Y21250D01*
D12*
X21945Y20500D02*
G03*
X21945Y20500I-250J0D01*
G01*
D13*
X31800Y32750D02*
X32200D01*
X31354Y21500D02*
X31754D01*
X30000Y21800D02*
Y22200D01*
X28250Y35300D02*
Y35700D01*
M02*
